<svg xmlns="http://www.w3.org/2000/svg" width="372.302" height="203.147" viewBox="0 0 372.302 203.147">
  <g id="undraw_teacher_-35-j2_1_" data-name="undraw_teacher_-35-j2 (1)" transform="translate(0 -0.035)">
    <path id="Path_450" data-name="Path 450" d="M393.357,324.76a61.041,61.041,0,0,1-5.313,10.217,43.948,43.948,0,0,1-3.218,4.426.224.224,0,0,1-.036.039H25l.049-.039c.324-.253,2.224-1.79,5.18-4.426,2.121-1.887,4.782-4.341,7.77-7.294,24.439-24.038,71.385-80.936,32.287-133.058-36.347-48.455,2.787-57.247,28.6-58.274a73.751,73.751,0,0,1,29.091,4.756A258.469,258.469,0,0,0,190.1,155.773c.932.1,1.871.207,2.823.3a271.979,271.979,0,0,0,45.253.822h0c.444-.026.89-.058,1.34-.091a268.9,268.9,0,0,0,44.262-6.847c.942-.23,1.871-.447,2.8-.664,48.442-11.208,93.1,26.99,81.933,70.158-4.128,15.967-3.079,32.986,10.684,46.755C401.726,288.682,399,310.817,393.357,324.76Z" transform="translate(-25 -136.26)" fill="#00adb5" opacity="0.1"/>
    <path id="Path_451" data-name="Path 451" d="M393.459,707.052a61.044,61.044,0,0,1-5.313,10.217,43.958,43.958,0,0,1-3.218,4.426H25.15c.324-.253,2.224-1.79,5.18-4.426,2.121-1.888,4.782-4.341,7.77-7.294l37.92-7.835a7.371,7.371,0,0,1,1.489-.152l40.426-.058h.042L138,701.9h.045l16.9-.019h22.393l46.431-.065h19.978l7.974-.091h2.635l23.193-.032h10.968l26.79-.036h7.977l25.375-.036,21.419-.026a7.6,7.6,0,0,1,1.771.21Z" transform="translate(-25.101 -518.552)" fill="#454b69"/>
    <path id="Path_452" data-name="Path 452" d="M30.33,750H388.146a43.971,43.971,0,0,1-3.218,4.426H25.15C25.467,754.157,27.368,752.619,30.33,750Z" transform="translate(-25.101 -551.282)" fill="none"/>
    <path id="Path_453" data-name="Path 453" d="M30.33,750H388.146a43.971,43.971,0,0,1-3.218,4.426H25.15C25.467,754.157,27.368,752.619,30.33,750Z" transform="translate(-25.101 -551.282)" opacity="0.4"/>
    <path id="Path_454" data-name="Path 454" d="M564.833,244.684l-.719.139-32.491,6.242c-9.437,1.813-19.01,3.636-28.6,2.94-6.944-.505-13.432-2.564-20.1-4.371-3.772-1.023-7.77-1.431-9.049-5.653-1.764-5.827,1.107-14.455,1.784-20.36.647-5.795,1.029-11.736-.123-17.463a31.057,31.057,0,0,0-1.01-3.8c-1.156-3.428-2.972-6.993-1.991-10.473.774-2.762,3.134-4.733,5.342-6.559,4.325-3.561,8.741-7.553,10.457-12.891.842-2.59,1-5.377,1.907-7.948,1.719-4.889,6.038-8.544,10.842-10.48s10.088-2.347,15.271-2.347a103.465,103.465,0,0,1,13.679.909c4.952.648,9.945,1.713,14.292,4.167s8.013,6.475,9.026,11.376c1.434,6.931-2.548,14.313-.411,21.043,1.075,3.4,3.561,6.151,5.287,9.266a22.069,22.069,0,0,1,1.619,17.158c-2.065,6.4-7.122,12.875-4.532,19.081,1.648,3.946,5.857,6.054,8.79,9.181Q564.493,244.263,564.833,244.684Z" transform="translate(-327.459 -146.65)" fill="#454b69"/>
    <path id="Path_455" data-name="Path 455" d="M566.32,325.925v.955l-32.491,6.242c-9.437,1.813-19.01,3.636-28.6,2.94-6.944-.505-13.432-2.564-20.1-4.371-3.772-1.023-7.77-1.431-9.049-5.653-1.764-5.827,1.107-14.455,1.784-20.36.648-5.8,10.615-26.952,9.463-32.679l59.569,2.59c.4,3.163,16.145,19.039,15.164,22.073-2.066,6.4-7.122,12.875-4.532,19.081C559.178,320.69,563.387,322.8,566.32,325.925Z" transform="translate(-329.664 -228.708)" opacity="0.1"/>
    <path id="Path_456" data-name="Path 456" d="M527.562,347.236c.353,2,.541,4.209-.482,5.957-1.363,2.344-4.335,3.092-6.993,3.623l-9.227,1.845a3.581,3.581,0,0,0-1.764.7,3.087,3.087,0,0,0-.822,2.017c-.372,3.341.809,6.634,1.888,9.816,2.179,6.446,4.008,13.027,6.763,19.246s6.536,12.157,11.933,16.313S541.4,413.124,548,411.5c5.756-1.415,10.476-5.478,14.546-9.787,3.357-3.561,6.5-7.446,8.126-12.066a42.966,42.966,0,0,0,1.842-9.9l1.638-15.4c.256-2.409.424-5.118-1.14-6.967a8.3,8.3,0,0,0-2.571-1.855c-3.542-1.881-7.271-3.435-10.567-5.7s-6.219-5.387-7.219-9.259c-.6-2.324-.492-4.856-1.512-7.022A9.481,9.481,0,0,0,545,328.75a20.981,20.981,0,0,0-7.99-.324c-2.668.3-12.95,1.072-14.054,4.079-.592,1.619,1.865,5.092,2.447,6.685A46.667,46.667,0,0,1,527.562,347.236Z" transform="translate(-351.77 -266.037)" fill="#efb7b9"/>
    <path id="Path_457" data-name="Path 457" d="M527.562,347.236c.353,2,.541,4.209-.482,5.957-1.363,2.344-4.335,3.092-6.993,3.623l-9.227,1.845a3.581,3.581,0,0,0-1.764.7,3.087,3.087,0,0,0-.822,2.017c-.372,3.341.809,6.634,1.888,9.816,2.179,6.446,4.008,13.027,6.763,19.246s6.536,12.157,11.933,16.313S541.4,413.124,548,411.5c5.756-1.415,10.476-5.478,14.546-9.787,3.357-3.561,6.5-7.446,8.126-12.066a42.966,42.966,0,0,0,1.842-9.9l1.638-15.4c.256-2.409.424-5.118-1.14-6.967a8.3,8.3,0,0,0-2.571-1.855c-3.542-1.881-7.271-3.435-10.567-5.7s-6.219-5.387-7.219-9.259c-.6-2.324-.492-4.856-1.512-7.022A9.481,9.481,0,0,0,545,328.75a20.981,20.981,0,0,0-7.99-.324c-2.668.3-12.95,1.072-14.054,4.079-.592,1.619,1.865,5.092,2.447,6.685A46.667,46.667,0,0,1,527.562,347.236Z" transform="translate(-351.77 -266.037)" opacity="0.1"/>
    <path id="Path_458" data-name="Path 458" d="M540.973,429.354l5.41-11.454c2.535-5.368,5.125-11.007,4.856-16.935-.052-1.178-.065-2.651.971-3.186a2.778,2.778,0,0,1,1.421-.181,57.5,57.5,0,0,1,16.676,3.373,6.616,6.616,0,0,1,2.833,1.638,6.761,6.761,0,0,1,1.272,3.011,87.9,87.9,0,0,1,1.855,10.965c.971,9.136.489,18.353,0,27.518l-1.437,27.981a2.674,2.674,0,0,1-.236,1.153,2.488,2.488,0,0,1-1.881.987,40.837,40.837,0,0,1-8.44.272c-19.813-.751-39.73-1.9-59.413.5q.133-4.367-.139-8.741c-.78-12.59-4.044-24.873-7.249-37.072-1.868-7.122-3.678-14.892-.67-21.6a9.257,9.257,0,0,1,1.875-2.855,10.651,10.651,0,0,1,4.753-2.386,30.246,30.246,0,0,1,9.159-1.036L533,445.742c.932,2.033,1.7,4.173,2.629,6.18.835-3.467-.168-7.53.835-11.289A71.077,71.077,0,0,1,540.973,429.354Z" transform="translate(-342.975 -312.951)" fill="#fff"/>
    <path id="Path_459" data-name="Path 459" d="M490.055,458.337c3.652.23,7.2-1.641,9.712-4.286a30.01,30.01,0,0,0,5.572-9.389,92.592,92.592,0,0,0,4.788-14.928c.971-4.338,1.661-8.828.991-13.225-.926-6.07-4.361-11.587-4.947-17.7-.1-1.068-.036-2.318.822-2.962a3.416,3.416,0,0,1,1.891-.492c6.106-.363,12.814-.295,17.544,3.581,1.441,1.178,2.609,2.651,4.018,3.865,3.354,2.914,8.094,4.4,10.246,8.265a28.677,28.677,0,0,1,1.635,4.322,39.759,39.759,0,0,0,5.5,9.418c-2.062,8.7-4.432,17.411-6.494,26.113a114.208,114.208,0,0,1-4.322,15.119c-1.243,3.205-2.807,6.475-2.425,9.906a22.619,22.619,0,0,0,.994,3.943,45.325,45.325,0,0,1,1.907,14.093l-92.377.227c4.426-6.345,5.724-14.128,5.274-21.849a23.875,23.875,0,0,0-2.914-10.625c-2.933-5.018-8.094-8.288-13.18-11.088-3.561-1.942-7.385,8.987-11.234,7.734.622-4.4.906-21.367.647-25.793a11.821,11.821,0,0,1,.233-4.325c.3-.949.864-1.8,1.243-2.719,1.518-3.694.071-8.417,2.525-11.561,1.7-2.185,4.672-2.807,7.09-4.154,2.483-1.386,4.4-3.561,6.565-5.419a29.2,29.2,0,0,1,14.944-6.672,18.823,18.823,0,0,1,2.852,8.417c.165,1.881.045,3.788.308,5.659a27.862,27.862,0,0,0,2.447,7.258c4.328,9.774,8.673,19.577,14.157,28.755a30.459,30.459,0,0,0,5.484,7.2A12.533,12.533,0,0,0,490.055,458.337Z" transform="translate(-294.191 -311.356)" fill="#00adb5"/>
    <path id="Path_460" data-name="Path 460" d="M490.055,458.337c3.652.23,7.2-1.641,9.712-4.286a30.01,30.01,0,0,0,5.572-9.389,92.592,92.592,0,0,0,4.788-14.928c.971-4.338,1.661-8.828.991-13.225-.926-6.07-4.361-11.587-4.947-17.7-.1-1.068-.036-2.318.822-2.962a3.416,3.416,0,0,1,1.891-.492c6.106-.363,12.814-.295,17.544,3.581,1.441,1.178,2.609,2.651,4.018,3.865,3.354,2.914,8.094,4.4,10.246,8.265a28.677,28.677,0,0,1,1.635,4.322,39.759,39.759,0,0,0,5.5,9.418c-2.062,8.7-4.432,17.411-6.494,26.113a114.208,114.208,0,0,1-4.322,15.119c-1.243,3.205-2.807,6.475-2.425,9.906a22.619,22.619,0,0,0,.994,3.943,45.325,45.325,0,0,1,1.907,14.093l-92.377.227c4.426-6.345,5.724-14.128,5.274-21.849a23.875,23.875,0,0,0-2.914-10.625c-2.933-5.018-8.094-8.288-13.18-11.088-3.561-1.942-7.385,8.987-11.234,7.734.622-4.4.906-21.367.647-25.793a11.821,11.821,0,0,1,.233-4.325c.3-.949.864-1.8,1.243-2.719,1.518-3.694.071-8.417,2.525-11.561,1.7-2.185,4.672-2.807,7.09-4.154,2.483-1.386,4.4-3.561,6.565-5.419a29.2,29.2,0,0,1,14.944-6.672,18.823,18.823,0,0,1,2.852,8.417c.165,1.881.045,3.788.308,5.659a27.862,27.862,0,0,0,2.447,7.258c4.328,9.774,8.673,19.577,14.157,28.755a30.459,30.459,0,0,0,5.484,7.2A12.533,12.533,0,0,0,490.055,458.337Z" transform="translate(-294.191 -311.356)" opacity="0.1"/>
    <circle id="Ellipse_30" data-name="Ellipse 30" cx="27.751" cy="27.751" r="27.751" transform="translate(163.228 24.962)" fill="#efb7b9"/>
    <path id="Path_461" data-name="Path 461" d="M524,250.8c.761-7.181-2.224-14.206-5.6-20.587-1.619-3.05-3.354-6.09-4.167-9.44s-.579-7.145,1.5-9.9c1.768-2.344,4.571-3.61,7.164-4.986,7.32-3.885,14.012-9.6,17.23-17.233-1.82.991-1.347,3.946.259,5.251s3.794,1.557,5.769,2.179c7.2,2.266,11.519,9.447,14.983,16.155a7.722,7.722,0,0,1,1.136,3.483,7.067,7.067,0,0,1-1.159,3.377c-1.709,3.043-3.8,5.967-4.578,9.369-.89,3.885.049,7.971,1.269,11.781,1.295,4.053,3.014,8.139,6.122,11.046s7.928,4.351,11.752,2.473c-3.817-6.562-7.77-13.9-6.281-21.335.719-3.561,2.651-6.8,3.474-10.34,1.567-6.757-1.042-13.707-3.6-20.156l-7.653-19.246c-1.169-2.943-2.5-6.083-5.18-7.75a14.026,14.026,0,0,0-6.132-1.619c-6.837-.609-13.921-.408-20.286,2.137-11.6,4.633-18.868,16.054-24.637,27.133-1.729,3.318-3.435,6.844-3.364,10.586a29.386,29.386,0,0,0,1.078,6.051c1.9,8.145,2,16.585,2.1,24.948.074,6.417-.259,12.464-3.066,18.308,3.846.764,9.424,2.826,13.231,1.318C520.32,261.836,523.376,255.792,524,250.8Z" transform="translate(-347.584 -161.102)" fill="#454b69"/>
    <g id="Group_8" data-name="Group 8" transform="translate(154.414 27.037)" opacity="0.1">
      <path id="Path_462" data-name="Path 462" d="M505.143,324.41q.019-1.369,0-2.765c-.1-8.362-.2-16.8-2.1-24.948a42.113,42.113,0,0,1-.991-4.817,12.587,12.587,0,0,0-.087,1.68,29.374,29.374,0,0,0,1.078,6.051C504.933,307.708,505.049,316.1,505.143,324.41Z" transform="translate(-501.966 -268.512)"/>
      <path id="Path_463" data-name="Path 463" d="M712.95,312.519a19.589,19.589,0,0,0,.421-5.769,17.989,17.989,0,0,1-.421,2.855c-.822,3.561-2.755,6.769-3.474,10.34a17.158,17.158,0,0,0-.259,4.785,16.99,16.99,0,0,1,.259-1.871C710.2,319.289,712.128,316.067,712.95,312.519Z" transform="translate(-642.078 -278.568)"/>
      <path id="Path_464" data-name="Path 464" d="M586.63,245.794a4.669,4.669,0,0,0,.253-1.428,7.8,7.8,0,0,0-1.136-3.483c-3.464-6.708-7.77-13.882-14.983-16.155-1.975-.622-4.16-.874-5.769-2.179a4.105,4.105,0,0,1-1.418-2.849c-3.509,6.442-9.537,11.37-16.07,14.831-2.59,1.376-5.4,2.642-7.164,4.986a11.044,11.044,0,0,0-1.855,7.838,9.91,9.91,0,0,1,1.855-4.924c1.768-2.344,4.571-3.61,7.164-4.986,6.533-3.461,12.561-8.388,16.07-14.831a4.105,4.105,0,0,0,1.418,2.849c1.619,1.295,3.794,1.557,5.769,2.179,7.2,2.266,11.519,9.447,14.983,16.155A12.753,12.753,0,0,1,586.63,245.794Z" transform="translate(-526.61 -219.7)"/>
      <path id="Path_465" data-name="Path 465" d="M677.085,368.015c-3.108-2.914-4.82-6.993-6.122-11.046a31.977,31.977,0,0,1-1.554-7.028,25.6,25.6,0,0,0,1.554,9.942c1.295,4.053,3.014,8.139,6.122,11.046s7.928,4.351,11.752,2.473c-.46-.787-.916-1.586-1.37-2.392C683.916,372.01,679.837,370.585,677.085,368.015Z" transform="translate(-615.158 -307.776)"/>
      <path id="Path_466" data-name="Path 466" d="M524.208,402.468c-.625,5-3.681,11.04-8.657,13.014-3.454,1.369-8.372-.2-12.124-1.075a28.059,28.059,0,0,1-1.107,2.671c3.846.764,9.424,2.826,13.231,1.318,4.976-1.975,8.032-8.019,8.657-13.014a22.5,22.5,0,0,0,.071-3.762C524.26,401.9,524.231,402.187,524.208,402.468Z" transform="translate(-502.205 -342.725)"/>
    </g>
    <path id="Path_467" data-name="Path 467" d="M643.2,648.756c-5-.793-10.078-2.325-15.038-1.3a20.9,20.9,0,0,0-7.893,3.755c1.314,1.052,2.849,1.991,3.684,3.454a13.6,13.6,0,0,1,1.159,3.2,27.188,27.188,0,0,1,1.133,5.944,9.046,9.046,0,0,1-1.528,5.753c6.307.622,12.419-.932,18.57-2.451a5.086,5.086,0,0,0,1.965-.793,4.218,4.218,0,0,0,1.263-3.364,23.032,23.032,0,0,0-1.253-6.5C644.512,653.909,643.955,651.287,643.2,648.756Z" transform="translate(-427.556 -481.707)" fill="#fff"/>
    <path id="Path_468" data-name="Path 468" d="M715.872,483.079c2.483.324,4.409,2.328,5.827,4.387,3.979,5.73,5.695,12.678,7.6,19.389a258.1,258.1,0,0,0,8.375,24.643,37.092,37.092,0,0,0,2.512,5.406,15.125,15.125,0,0,1,2.124,4.141c.855,3.671-2.172,7.122-5.329,9.168a21.087,21.087,0,0,1-5.455,2.629,32.482,32.482,0,0,1-5.8.991l-17.971,1.943c-8.272.9-16.618,1.8-24.893.932-.521-1.813.5-3.095.427-4.982a11.13,11.13,0,0,0-1.178-3.849,24.6,24.6,0,0,1-1.92-6.964,9.443,9.443,0,0,0-.463-2.613,2.449,2.449,0,0,0-1.943-1.619c4.856-.482,8.544-1.4,13.4-1.884a11.965,11.965,0,0,0,5.215-1.344c1.907-1.188,2.975-3.331,3.823-5.41,2.1-5.148,3.454-10.819,2.35-16.271-.906-4.471-3.435-8.634-3.422-13.2a19.744,19.744,0,0,1,2.02-7.835c1.159-2.629,2.671-5.316,5.215-6.65S713,482.69,715.872,483.079Z" transform="translate(-466.454 -370.635)" fill="#00adb5"/>
    <path id="Path_469" data-name="Path 469" d="M715.872,483.079c2.483.324,4.409,2.328,5.827,4.387,3.979,5.73,5.695,12.678,7.6,19.389a258.1,258.1,0,0,0,8.375,24.643,37.092,37.092,0,0,0,2.512,5.406,15.125,15.125,0,0,1,2.124,4.141c.855,3.671-2.172,7.122-5.329,9.168a21.087,21.087,0,0,1-5.455,2.629,32.482,32.482,0,0,1-5.8.991l-17.971,1.943c-8.272.9-16.618,1.8-24.893.932-.521-1.813.5-3.095.427-4.982a11.13,11.13,0,0,0-1.178-3.849,24.6,24.6,0,0,1-1.92-6.964,9.443,9.443,0,0,0-.463-2.613,2.449,2.449,0,0,0-1.943-1.619c4.856-.482,8.544-1.4,13.4-1.884a11.965,11.965,0,0,0,5.215-1.344c1.907-1.188,2.975-3.331,3.823-5.41,2.1-5.148,3.454-10.819,2.35-16.271-.906-4.471-3.435-8.634-3.422-13.2a19.744,19.744,0,0,1,2.02-7.835c1.159-2.629,2.671-5.316,5.215-6.65S713,482.69,715.872,483.079Z" transform="translate(-466.454 -370.635)" opacity="0.08"/>
    <path id="Path_470" data-name="Path 470" d="M442.707,365.734c1.175-2.791,2.37-5.672,2.4-8.7.036-3.273-1.295-6.381-2.312-9.489a54.872,54.872,0,0,1-2.5-11.716,1.619,1.619,0,0,1,.162-1.123,1.93,1.93,0,0,1,1.243-.557c2.24-.512,3.933-2.321,5.332-4.144a45.435,45.435,0,0,0,5.458-9.117c1.071-2.386,2.522-5.3,5.138-5.319a148.376,148.376,0,0,1-3.911,14.649c2.736-.7,5.335-1.716,8.071-2.415a4.833,4.833,0,0,1,1.658-.22,2.5,2.5,0,0,1,1.69,3.733c1.337,1.567,3.561,1.988,5.309,3.063s3,3.736,1.45,5.086a4.334,4.334,0,0,0-.91.783c-.751,1.159,1.088,2.49.936,3.862-.123,1.123-1.564,1.648-2.655,1.35a11.946,11.946,0,0,1-2.914-1.713,3.047,3.047,0,0,0-3.182-.35c-.253,3.046-.524,6.151-1.842,8.926-.482,1.013-1.1,1.962-1.489,3.014a14.856,14.856,0,0,0-.686,3.539l-1.175,10.745C452.378,370.745,447.35,369.065,442.707,365.734Z" transform="translate(-305.826 -257.496)" fill="#efb7b9"/>
    <path id="Path_471" data-name="Path 471" d="M441.078,472.388l-1.033-6.99a8.534,8.534,0,0,1,1.237-6.358,42.56,42.56,0,0,0,18.194,3.619,2.841,2.841,0,0,0,2.3-.728,5.276,5.276,0,0,1,.647,4.785c-.456,1.567-1.334,2.978-1.916,4.507a6.426,6.426,0,0,1-1.1,2.214,4.736,4.736,0,0,1-3.581,1.1,22.885,22.885,0,0,1-4.04-.385C448.336,473.508,444.529,471.77,441.078,472.388Z" transform="translate(-305.566 -354.519)" fill="#fff"/>
    <path id="Path_472" data-name="Path 472" d="M443.633,492.364q-6.653-.758-13.218-2.137a26.736,26.736,0,0,0-6.5-.864c-1.424.058-2.956.343-4.209-.363a20.262,20.262,0,0,1-.165,12.607c-.864,2.428-2.182,4.691-2.816,7.19-1.321,5.228.492,10.929-1.159,16.064a4.065,4.065,0,0,1-1,1.787c-.505.463-1.195.7-1.661,1.2a4.111,4.111,0,0,0-.732,2.855l-.029,8.919c-.019,5.678.055,11.7,3.053,16.511a15.677,15.677,0,0,0,16.88,6.682,12.549,12.549,0,0,0,4.584-2.244c2.176-1.729,3.561-4.228,4.918-6.663,1.619-2.914,3.237-5.892,3.759-9.172a26.059,26.059,0,0,0-.1-7.025c-1.463-12.95-4.639-25.789-3.956-38.788A11.756,11.756,0,0,1,443.633,492.364Z" transform="translate(-286.809 -374.779)" fill="#00adb5"/>
    <path id="Path_473" data-name="Path 473" d="M484.878,662.379a39.259,39.259,0,0,1-6.756,0c-1.619-.194-3.2-.593-4.8-.864a30.791,30.791,0,0,0-24.8,6.889c-1.243,1.062-2.5,2.69-1.813,4.176.738,1.6,2.995,1.554,4.733,1.256a14.245,14.245,0,0,0-4.856,3.8,2.867,2.867,0,0,0-.851,2.062c.2,1.6,2.373,1.894,3.982,1.755a1.34,1.34,0,0,0,.5,1.942,3.323,3.323,0,0,0,2.25.165,16.683,16.683,0,0,0,4.778-1.654,1.821,1.821,0,0,0,.971,2.117,4,4,0,0,0,2.5.23c3.956-.648,7.258-3.4,11.117-4.481,6.171-1.726,12.626,1.026,19.039,1.22a13.285,13.285,0,0,0,5.9-.971c2.244-1.02,4.053-2.933,6.423-3.613,2.632-.751,5.653.113,8.061-1.185,1.751-.942.172-8.2-.275-9.6-.819-2.557-1.641-4.254-4.37-4.513C499.693,660.43,491.835,661.978,484.878,662.379Z" transform="translate(-309.517 -491.054)" fill="#efb7b9"/>
    <path id="Path_474" data-name="Path 474" d="M619.88,656.748s10.454,8.848,4.422,18.5l11.655-4.024v-8.446c0-.4-4.425-6.433-4.425-6.433l-5.228-.806Z" transform="translate(-427.292 -487.403)" fill="#fff"/>
    <path id="Path_475" data-name="Path 475" d="M239.884,521.32H243.8a8.094,8.094,0,0,1,8.094,8.094v12.014H231.79V529.414A8.094,8.094,0,0,1,239.884,521.32Z" transform="translate(-156.75 -352.523)" fill="#3f3d56"/>
    <path id="Path_476" data-name="Path 476" d="M239.884,521.32H243.8a8.094,8.094,0,0,1,8.094,8.094v12.014H231.79V529.414A8.094,8.094,0,0,1,239.884,521.32Z" transform="translate(-156.75 -352.523)" opacity="0.1"/>
    <circle id="Ellipse_31" data-name="Ellipse 31" cx="1.609" cy="1.609" r="1.609" transform="translate(82.681 170.002)" fill="#3f3d56"/>
    <circle id="Ellipse_32" data-name="Ellipse 32" cx="1.609" cy="1.609" r="1.609" transform="translate(82.681 167.991)" fill="#3f3d56"/>
    <circle id="Ellipse_33" data-name="Ellipse 33" cx="1.609" cy="1.609" r="1.609" transform="translate(82.681 165.981)" fill="#3f3d56"/>
    <circle id="Ellipse_34" data-name="Ellipse 34" cx="1.609" cy="1.609" r="1.609" transform="translate(82.681 163.97)" fill="#3f3d56"/>
    <circle id="Ellipse_35" data-name="Ellipse 35" cx="1.609" cy="1.609" r="1.609" transform="translate(82.681 161.96)" fill="#3f3d56"/>
    <circle id="Ellipse_36" data-name="Ellipse 36" cx="1.609" cy="1.609" r="1.609" transform="translate(82.681 159.949)" fill="#3f3d56"/>
    <circle id="Ellipse_37" data-name="Ellipse 37" cx="1.609" cy="1.609" r="1.609" transform="translate(82.681 157.936)" fill="#3f3d56"/>
    <circle id="Ellipse_38" data-name="Ellipse 38" cx="1.609" cy="1.609" r="1.609" transform="translate(85.096 158.742)" fill="#3f3d56"/>
    <circle id="Ellipse_39" data-name="Ellipse 39" cx="1.609" cy="1.609" r="1.609" transform="translate(86.705 157.936)" fill="#3f3d56"/>
    <circle id="Ellipse_40" data-name="Ellipse 40" cx="1.609" cy="1.609" r="1.609" transform="translate(88.314 157.133)" fill="#3f3d56"/>
    <circle id="Ellipse_41" data-name="Ellipse 41" cx="1.609" cy="1.609" r="1.609" transform="translate(82.681 155.925)" fill="#3f3d56"/>
    <circle id="Ellipse_42" data-name="Ellipse 42" cx="1.609" cy="1.609" r="1.609" transform="translate(82.681 153.915)" fill="#3f3d56"/>
    <circle id="Ellipse_43" data-name="Ellipse 43" cx="1.609" cy="1.609" r="1.609" transform="translate(82.681 151.904)" fill="#3f3d56"/>
    <circle id="Ellipse_44" data-name="Ellipse 44" cx="1.609" cy="1.609" r="1.609" transform="translate(82.681 149.894)" fill="#3f3d56"/>
    <path id="Path_477" data-name="Path 477" d="M277.765,576.278q-.6.087-1.2.126a9.251,9.251,0,0,0,1.036-1.062,6.8,6.8,0,0,0-.971-1.888,3.309,3.309,0,0,1-1.295.408c-.4.058-.8.1-1.2.13a20.076,20.076,0,0,0,1.538-1.619,6.831,6.831,0,1,0,2.243,5.054,6.69,6.69,0,0,0-.1-1.175Z" transform="translate(-186.793 -429.965)" fill="#00adb5"/>
    <path id="Path_478" data-name="Path 478" d="M309.186,611.174a3.12,3.12,0,0,1-1.353.45c-.4.058-.8.1-1.2.13a11.785,11.785,0,0,0,1.191-1.237,4.027,4.027,0,1,0,1.363.648Z" transform="translate(-212.85 -456.867)" fill="#00adb5"/>
    <circle id="Ellipse_45" data-name="Ellipse 45" cx="1.609" cy="1.609" r="1.609" transform="translate(80.269 158.742)" fill="#3f3d56"/>
    <circle id="Ellipse_46" data-name="Ellipse 46" cx="1.609" cy="1.609" r="1.609" transform="translate(78.66 157.936)" fill="#3f3d56"/>
    <circle id="Ellipse_47" data-name="Ellipse 47" cx="1.609" cy="1.609" r="1.609" transform="translate(77.051 157.133)" fill="#3f3d56"/>
    <path id="Path_479" data-name="Path 479" d="M244.716,611.174a3.121,3.121,0,0,0,1.353.45c.4.058.8.1,1.2.13a11.47,11.47,0,0,1-1.191-1.237,4.027,4.027,0,1,1-1.363.648Z" transform="translate(-172.47 -456.867)" fill="#00adb5"/>
    <path id="Path_480" data-name="Path 480" d="M239.863,525h3.921a8.094,8.094,0,0,1,8.094,8.094v10.641a1.373,1.373,0,0,1-1.373,1.373H233.133a1.373,1.373,0,0,1-1.373-1.373V533.094a8.094,8.094,0,0,1,8.1-8.094Z" transform="translate(-156.729 -355.011)" fill="#3f3d56"/>
    <g id="Group_9" data-name="Group 9" transform="translate(77.549 140.73)" opacity="0.1">
      <path id="Path_481" data-name="Path 481" d="M305.258,589.49a6.077,6.077,0,0,1-.518.492,5.233,5.233,0,0,0,.55-.049C305.284,589.785,305.274,589.636,305.258,589.49Z" transform="translate(-291.725 -583.467)"/>
      <path id="Path_482" data-name="Path 482" d="M297.28,580.75c.4-.026.8-.068,1.2-.126a3.884,3.884,0,0,0,1.046-.285,7.094,7.094,0,0,0-.563-.929,2.433,2.433,0,0,1-.647.275,9.328,9.328,0,0,1-1.039,1.065Z" transform="translate(-286.681 -576.65)"/>
      <path id="Path_483" data-name="Path 483" d="M265.249,578.439a6.824,6.824,0,0,1,10.522-5.75l.1-.11a6.831,6.831,0,1,0-9.007,10.272,6.8,6.8,0,0,1-1.619-4.413Z" transform="translate(-264.54 -570.885)"/>
    </g>
    <g id="Group_10" data-name="Group 10" transform="translate(89.923 153.513)" opacity="0.1">
      <path id="Path_484" data-name="Path 484" d="M314.68,614.182c.4-.026.8-.068,1.2-.126a3.123,3.123,0,0,0,1.353-.453,4.024,4.024,0,0,1,1.619,2.849,3.674,3.674,0,0,0,.023-.424,4.008,4.008,0,0,0-1.619-3.237,3.122,3.122,0,0,1-1.353.45l-.324.042A8.206,8.206,0,0,1,314.68,614.182Z" transform="translate(-310.821 -612.006)"/>
      <path id="Path_485" data-name="Path 485" d="M306.781,611.173a3.333,3.333,0,0,1,.4.029c.21-.223.418-.463.628-.7a4.014,4.014,0,0,0-5.05,3.885,2.756,2.756,0,0,0,.019.4A4.021,4.021,0,0,1,306.781,611.173Z" transform="translate(-302.76 -610.37)"/>
    </g>
    <g id="Group_11" data-name="Group 11" transform="translate(70.605 153.513)" opacity="0.1">
      <path id="Path_486" data-name="Path 486" d="M247.286,614.182c-.4-.026-.8-.068-1.2-.126a3.123,3.123,0,0,1-1.353-.453,4.024,4.024,0,0,0-1.619,2.849,3.694,3.694,0,0,1-.023-.424,4.008,4.008,0,0,1,1.619-3.237,3.122,3.122,0,0,0,1.353.45l.324.042A7.661,7.661,0,0,0,247.286,614.182Z" transform="translate(-243.09 -612.006)"/>
      <path id="Path_487" data-name="Path 487" d="M253.4,611.173a3.439,3.439,0,0,0-.4.029c-.207-.223-.414-.463-.625-.7a4.014,4.014,0,0,1,5.05,3.885,2.76,2.76,0,0,1-.019.4A4.021,4.021,0,0,0,253.4,611.173Z" transform="translate(-249.366 -610.37)"/>
    </g>
    <path id="Path_488" data-name="Path 488" d="M152.973,698.506h-31.63A1.344,1.344,0,0,1,120,697.163v-14.97a1.344,1.344,0,0,1,1.92-1.214c9.087,4.312,18.877,5.792,30.432.068a1.347,1.347,0,0,1,1.942,1.2V697.14A1.343,1.343,0,0,1,152.973,698.506Z" transform="translate(-89.244 -504.519)" fill="#00adb5"/>
    <path id="Path_489" data-name="Path 489" d="M152.973,698.506h-31.63A1.344,1.344,0,0,1,120,697.163v-14.97a1.344,1.344,0,0,1,1.92-1.214c9.087,4.312,18.877,5.792,30.432.068a1.347,1.347,0,0,1,1.942,1.2V697.14A1.343,1.343,0,0,1,152.973,698.506Z" transform="translate(-89.244 -504.519)" opacity="0.1"/>
    <ellipse id="Ellipse_48" data-name="Ellipse 48" cx="1.871" cy="2.451" rx="1.871" ry="2.451" transform="translate(45.822 177.707)" fill="#3f3d56"/>
    <ellipse id="Ellipse_49" data-name="Ellipse 49" cx="1.871" cy="2.451" rx="1.871" ry="2.451" transform="translate(45.822 174.712)" fill="#3f3d56"/>
    <ellipse id="Ellipse_50" data-name="Ellipse 50" cx="1.871" cy="2.451" rx="1.871" ry="2.451" transform="translate(45.822 171.714)" fill="#3f3d56"/>
    <ellipse id="Ellipse_51" data-name="Ellipse 51" cx="1.871" cy="2.451" rx="1.871" ry="2.451" transform="translate(45.822 168.72)" fill="#3f3d56"/>
    <ellipse id="Ellipse_52" data-name="Ellipse 52" cx="1.871" cy="2.451" rx="1.871" ry="2.451" transform="translate(45.822 165.722)" fill="#3f3d56"/>
    <ellipse id="Ellipse_53" data-name="Ellipse 53" cx="1.871" cy="2.451" rx="1.871" ry="2.451" transform="translate(45.822 162.724)" fill="#3f3d56"/>
    <ellipse id="Ellipse_54" data-name="Ellipse 54" cx="1.871" cy="2.451" rx="1.871" ry="2.451" transform="translate(45.822 159.729)" fill="#3f3d56"/>
    <path id="Path_490" data-name="Path 490" d="M160.533,543.4a9.531,9.531,0,0,0,.7-1.026l-4.921-.809,5.322.039a8.971,8.971,0,0,0,.172-7.122l-7.139,3.7,6.585-4.856a8.971,8.971,0,1,0-14.818,10.036A8.769,8.769,0,0,0,145.408,545l6.384,3.354-6.8-2.3a8.981,8.981,0,0,0,1.447,8.417,8.971,8.971,0,1,0,14.1,0,8.971,8.971,0,0,0,0-11.091Z" transform="translate(-105.821 -401.729)" fill="#00adb5"/>
    <path id="Path_491" data-name="Path 491" d="M144.49,590.654a8.932,8.932,0,0,0,1.92,5.546,8.971,8.971,0,1,0,14.1,0C161.713,594.675,144.49,589.647,144.49,590.654Z" transform="translate(-105.806 -443.434)" opacity="0.1"/>
    <path id="Path_492" data-name="Path 492" d="M152.973,699.3h-31.63A1.343,1.343,0,0,1,120,697.956V682.193a1.344,1.344,0,0,1,1.92-1.214c9.087,4.312,16.294,9.34,30.432.068a1.317,1.317,0,0,1,1.942,1.2v15.7A1.343,1.343,0,0,1,152.973,699.3Z" transform="translate(-89.244 -504.519)" fill="#00adb5"/>
    <path id="Path_493" data-name="Path 493" d="M771.823,553.693l-46.664,6.174-2.334.307L700.01,547.988v-2.852L771.3,537.36Z" transform="translate(-473.387 -363.37)" fill="#9c9ca1"/>
    <path id="Path_494" data-name="Path 494" d="M740.85,561.74l50.552-5.96-.518,9.333L751.508,568Z" transform="translate(-501.006 -375.827)" fill="#939498"/>
    <path id="Path_495" data-name="Path 495" d="M750.152,709.3v3.063l-2.334.324L725,700.492V697.64l21.778,11.655A14.425,14.425,0,0,0,750.152,709.3Z" transform="translate(-498.38 -515.874)" opacity="0.4"/>
    <path id="Path_496" data-name="Path 496" d="M808.329,571.476l-10.476,48.578a3.1,3.1,0,0,0,3.438,3.733l66.28-8.773a3.1,3.1,0,0,0,2.538-2.1l14.3-43.122a3.108,3.108,0,0,0-3.095-4.079l-70.1,3.328A3.108,3.108,0,0,0,808.329,571.476Z" transform="translate(-547.6 -426.655)" fill="#3f3d56"/>
    <ellipse id="Ellipse_55" data-name="Ellipse 55" cx="2.817" cy="1.81" rx="2.817" ry="1.81" transform="translate(293.255 165.166) rotate(-84)" fill="#fff"/>
  </g>
</svg>
