<svg xmlns="http://www.w3.org/2000/svg" width="337.444" height="287.295" viewBox="0 0 337.444 287.295">
  <g id="choose" transform="translate(0 3.454)">
    <path id="Path_704" data-name="Path 704" d="M594.24,365.467a7.453,7.453,0,0,0-.76.9l-35.135-1.241-4.019-7.536-12.166,4.578,5.817,14.037a5.671,5.671,0,0,0,5.858,3.466l39.76-4.365a7.444,7.444,0,1,0,.646-9.83Z" transform="translate(-414.441 -281.682)" fill="#a0616a"/>
    <circle id="Ellipse_56" data-name="Ellipse 56" cx="20.516" cy="20.516" r="20.516" transform="translate(91.996 6.13)" fill="#393e46"/>
    <ellipse id="Ellipse_57" data-name="Ellipse 57" cx="8.489" cy="6.367" rx="8.489" ry="6.367" transform="translate(81.493 12.582) rotate(-45)" fill="#393e46"/>
    <ellipse id="Ellipse_58" data-name="Ellipse 58" cx="6.367" cy="8.489" rx="6.367" ry="8.489" transform="translate(115.781 8.256) rotate(-66.869)" fill="#393e46"/>
    <path id="Path_501" data-name="Path 501" d="M552.187,355.962,536.443,363a3.415,3.415,0,0,1-4.682-2.2l-4.643-16.555a9.483,9.483,0,0,1,17.337-7.692l9.217,14.449a3.415,3.415,0,0,1-1.486,4.953Z" transform="translate(-409.825 -273.92)" fill="#ccc"/>
    <path id="Path_502" data-name="Path 502" d="M456.372,431.972a7.616,7.616,0,0,0,5.278-10.417l28.075-63.428-16.06-4.045L451.118,417.7a7.657,7.657,0,0,0,5.254,14.271Z" transform="translate(-386.723 -280.662)" fill="#a0616a"/>
    <path id="Path_503" data-name="Path 503" d="M87.453,364.1l8.167,2.973,15.356-30.085L98.922,332.6Z" transform="translate(-25.456 -97.819)" fill="#a0616a"/>
    <path id="Path_504" data-name="Path 504" d="M0,0H27.316V10.554H10.554A10.554,10.554,0,0,1,0,0H0Z" transform="matrix(-0.94, -0.342, 0.342, -0.94, 83.155, 282.572)" fill="#393e46"/>
    <path id="Path_505" data-name="Path 505" d="M471.45,566.962a3.383,3.383,0,0,1-1.449-.325l-9.386-4.446a3.4,3.4,0,0,1-1.75-4.246l26.488-73.35a3.415,3.415,0,0,1,6.14-.6l14.01,23.35a3.418,3.418,0,0,1,.037,3.451l-31.112,54.446A3.431,3.431,0,0,1,471.45,566.962Z" transform="translate(-390.136 -317.996)" fill="#393e46"/>
    <circle id="Ellipse_59" data-name="Ellipse 59" cx="17.412" cy="17.412" r="17.412" transform="translate(95.751 14.132)" fill="#a0616a"/>
    <path id="Path_506" data-name="Path 506" d="M536.536,383.593l-30.829-8.478-16.4-32.794a10.333,10.333,0,0,1,9.242-14.954H523.08a10.32,10.32,0,0,1,6.9,2.638c6.58,5.894,20.4,22.887,6.691,53.292Z" transform="translate(-398.74 -272.886)" fill="#ccc"/>
    <path id="Path_507" data-name="Path 507" d="M494.713,362.623l-15.62-7.311a3.415,3.415,0,0,1-1.4-4.978L487.186,336a9.483,9.483,0,0,1,17.154,8.091l-4.909,16.42a3.415,3.415,0,0,1-4.719,2.114Z" transform="translate(-395.511 -273.815)" fill="#ccc"/>
    <path id="Path_508" data-name="Path 508" d="M166.59,374.864h8.691l4.135-33.523H166.589Z" transform="translate(-48.491 -100.364)" fill="#a0616a"/>
    <path id="Path_509" data-name="Path 509" d="M0,0H27.316V10.554H10.554A10.554,10.554,0,0,1,0,0H0Z" transform="translate(143.551 282.571) rotate(179.997)" fill="#393e46"/>
    <path id="Path_510" data-name="Path 510" d="M520.028,552.68a3.4,3.4,0,0,1-3.33-2.7c-2.5-11.771-15.473-72.062-25.6-103.118-10.3-31.6,7.244-45.989,10.866-48.553a2.668,2.668,0,0,0,.888-1.072l2.632-5.789a3.427,3.427,0,0,1,3.117-2h.021c19.728.118,26.36,6.337,28.3,9.005a3.375,3.375,0,0,1,.534,2.783l-12.482,51.5a2.656,2.656,0,0,0-.052.976l12.419,93.506a3.415,3.415,0,0,1-2.994,3.842l-13.915,1.605A3.491,3.491,0,0,1,520.028,552.68Z" transform="translate(-398.646 -290.954)" fill="#393e46"/>
    <path id="Path_511" data-name="Path 511" d="M495.82,275.734a23.681,23.681,0,0,0,13.534,4.182,14.512,14.512,0,0,1-5.752,2.366,47.752,47.752,0,0,0,19.505.11,12.621,12.621,0,0,0,4.083-1.4,5.167,5.167,0,0,0,2.52-3.371c.428-2.445-1.477-4.666-3.457-6.163a25.5,25.5,0,0,0-21.427-4.282,11.734,11.734,0,0,0-6.346,3.586c-1.555,1.922-2.015,4.886-.534,6.865Z" transform="translate(-400.953 -255.142)" fill="#393e46"/>
    <path id="Path_512" data-name="Path 512" d="M378.83,307.116v66.448l-17.237-.5H273.41V318.857l25.731-11.741Z" transform="translate(-79.585 -90.402)" fill="#ccc"/>
    <path id="Path_513" data-name="Path 513" d="M378.83,307.116v.207l-6.188,4.141-11.048,7.393H273.41l25.731-11.741Z" transform="translate(-79.585 -90.402)" opacity="0.1"/>
    <path id="Path_514" data-name="Path 514" d="M415.039,307.116v66.448l-17.237-.5.125-54.334,10.924-7.267,6.088-4.349Z" transform="translate(-115.794 -90.402)" opacity="0.1"/>
    <path id="Path_515" data-name="Path 515" d="M367.291,316.235H313.582l4-2.248H369.04Z" transform="translate(-91.278 -92.402)" fill="#fff"/>
    <path id="Path_717" data-name="Path 717" d="M698.735,650.321H362.709a.709.709,0,1,1,0-1.418H698.735a.709.709,0,1,1,0,1.418Z" transform="translate(-362 -366.479)" fill="#e6e6e6"/>
    <path id="Path_516" data-name="Path 516" d="M684.57,354.583H626.439a6.388,6.388,0,0,1-6.38-6.38V285.109a6.388,6.388,0,0,1,6.38-6.38H684.57a6.388,6.388,0,0,1,6.38,6.38V348.2A6.388,6.388,0,0,1,684.57,354.583Zm-58.131-74.436a4.968,4.968,0,0,0-4.962,4.962V348.2a4.968,4.968,0,0,0,4.962,4.962H684.57a4.968,4.968,0,0,0,4.962-4.962V285.109a4.968,4.968,0,0,0-4.962-4.962Z" transform="translate(-437.117 -258.728)" fill="#393e46"/>
    <path id="Path_517" data-name="Path 517" d="M641.935,310.781h-5.671a3.194,3.194,0,0,1-3.19-3.19v-5.671a3.193,3.193,0,0,1,3.19-3.19h5.671a3.194,3.194,0,0,1,3.19,3.19v5.671a3.194,3.194,0,0,1-3.19,3.19Z" transform="translate(-440.905 -264.55)" fill="#00adb5"/>
    <path id="Path_518" data-name="Path 518" d="M641.935,335.781h-5.671a3.194,3.194,0,0,1-3.19-3.19v-5.671a3.194,3.194,0,0,1,3.19-3.19h5.671a3.194,3.194,0,0,1,3.19,3.19v5.671A3.194,3.194,0,0,1,641.935,335.781Z" transform="translate(-440.905 -271.827)" fill="#ccc"/>
    <path id="Path_519" data-name="Path 519" d="M692.3,308.749H665.822a2.129,2.129,0,0,1-2.127-2.127v-.9a2.129,2.129,0,0,1,2.127-2.127H692.3a2.129,2.129,0,0,1,2.127,2.127v.9A2.129,2.129,0,0,1,692.3,308.749Z" transform="translate(-449.818 -265.965)" fill="#00adb5"/>
    <path id="Path_520" data-name="Path 520" d="M692.3,333.749H665.822a2.129,2.129,0,0,1-2.127-2.127v-.9a2.129,2.129,0,0,1,2.127-2.127H692.3a2.129,2.129,0,0,1,2.127,2.127v.9A2.129,2.129,0,0,1,692.3,333.749Z" transform="translate(-449.818 -273.242)" fill="#ccc"/>
    <path id="Path_521" data-name="Path 521" d="M641.935,360.781h-5.671a3.194,3.194,0,0,1-3.19-3.19v-5.671a3.194,3.194,0,0,1,3.19-3.19h5.671a3.194,3.194,0,0,1,3.19,3.19v5.671A3.193,3.193,0,0,1,641.935,360.781Z" transform="translate(-440.905 -279.104)" fill="#ccc"/>
    <path id="Path_522" data-name="Path 522" d="M692.3,358.749H665.822a2.129,2.129,0,0,1-2.127-2.127v-.9a2.129,2.129,0,0,1,2.127-2.127H692.3a2.129,2.129,0,0,1,2.127,2.127v.9A2.129,2.129,0,0,1,692.3,358.749Z" transform="translate(-449.818 -280.519)" fill="#ccc"/>
  </g>
</svg>
