<svg xmlns="http://www.w3.org/2000/svg" xmlns:xlink="http://www.w3.org/1999/xlink" width="385.763" height="266.302" viewBox="0 0 385.763 266.302">
  <defs>
    <linearGradient id="linear-gradient" y1="0.5" x2="1" y2="0.5" gradientUnits="objectBoundingBox">
      <stop offset="0" stop-color="gray" stop-opacity="0.251"/>
      <stop offset="0.54" stop-color="gray" stop-opacity="0.122"/>
      <stop offset="1" stop-color="gray" stop-opacity="0.102"/>
    </linearGradient>
  </defs>
  <g id="undraw_authentication_fsn5" transform="translate(0 0.006)">
    <path id="Path_305" data-name="Path 305" d="M235.108,83.714c-24.727.033-48.527-6.976-71.293-14.763s-45.355-16.507-69.622-20.2c-15.607-2.375-33.354-2.157-45.554,6.467C36.9,63.513,33.5,77.244,31.855,89.93c-1.234,9.543-1.8,19.56,2.818,28.289,3.209,6.06,8.7,11.055,12.57,16.831,13.51,20.092,5.385,45.759-7.744,66.317-6.156,9.646-13.367,18.892-18.022,29.09s-6.563,21.763-1.816,31.829c4.7,9.977,15.329,17.218,26.731,22.163,23.156,10.063,50.115,12.219,76.35,13.05,58.074,1.842,116.261-1.915,174.292-5.673,21.475-1.389,43.046-2.789,64.078-6.814,11.677-2.233,23.7-5.547,31.981-12.812,10.509-9.223,12.659-24.28,5.012-35.1-12.825-18.154-46.642-21.578-55.838-41.22-5.071-10.814-.7-23.215,5.743-33.638C361.825,139.873,385.6,119.84,386,94.826c.275-17.178-12.091-33.936-30.559-41.4-19.358-7.82-45.752-5.809-59.315,8.766C282.183,77.2,256.94,83.691,235.108,83.714Z" transform="translate(-16.91 -47.46)" fill="#00adb5" opacity="0.1"/>
    <path id="Path_306" data-name="Path 306" d="M993.064,689.867s-4.065-2.683-8.094-.774c0,0,1.24,2.388,6.341,2.163Z" transform="translate(-664.742 -476.39)" fill="#00adb5"/>
    <path id="Path_307" data-name="Path 307" d="M1005.548,693.25s1.237,4.71-1.866,7.916c0,0-1.866-1.942,0-6.7Z" transform="translate(-676.71 -479.631)" fill="#00adb5"/>
    <path id="Path_308" data-name="Path 308" d="M1007.368,673.619s-.3-4.006-9.348-2.676c0,0-.043,2.583,3.133,3.807S1005.784,674.942,1007.368,673.619Z" transform="translate(-673.475 -464.522)" fill="#00adb5"/>
    <path id="Path_309" data-name="Path 309" d="M1022.634,679.5s3.824,1.227.414,9.712c0,0-2.524-.562-2.977-3.94S1020.96,680.731,1022.634,679.5Z" transform="translate(-688.172 -470.429)" fill="#00adb5"/>
    <path id="Path_310" data-name="Path 310" d="M1025.758,650.25s.519-6.593-8.726-5.918c0,0-.662,5.954,7.1,7.5Z" transform="translate(-686.189 -446.862)" fill="#00adb5"/>
    <path id="Path_311" data-name="Path 311" d="M1040.649,628.368s-1.267-7.473-10.509-5.246c0,0-.033,6.46,9,7.026Z" transform="translate(-694.97 -432.424)" fill="#00adb5"/>
    <path id="Path_312" data-name="Path 312" d="M1052.59,605.419s-2.124-7.277-11.28-5.1c0,0,2.18,6.546,10.671,6.444Z" transform="translate(-702.445 -417.168)" fill="#00adb5"/>
    <path id="Path_313" data-name="Path 313" d="M1066.146,582.279s-2.074-7.552-10.916-5.293c0,0,2.951,7.175,10.331,6.57Z" transform="translate(-711.761 -401.544)" fill="#00adb5"/>
    <path id="Path_314" data-name="Path 314" d="M1076.588,557.114s-1.594-9.236-9.838-7.191c0,0,2.395,8.4,9.232,8.538Z" transform="translate(-719.47 -383.518)" fill="#00adb5"/>
    <path id="Path_315" data-name="Path 315" d="M1083.495,531.817s-1.916-9.309-10.255-6.616c0,0,3.268,8.8,9.662,7.889Z" transform="translate(-723.813 -366.844)" fill="#00adb5"/>
    <path id="Path_316" data-name="Path 316" d="M1089.807,503.59s-3.04-9.312-9.487-9.06c0,0,3.106,9.834,8.948,10.916Z" transform="translate(-728.551 -346.643)" fill="#00adb5"/>
    <path id="Path_317" data-name="Path 317" d="M1094.774,477.228s-3.308-11.207-8.554-10.344c0,0,2.289,8.568,8.369,12.09Z" transform="translate(-732.499 -328.114)" fill="#00adb5"/>
    <path id="Path_318" data-name="Path 318" d="M1097.09,450.352s-3.1-9.338-8.27-9.712c0,0,2.11,9.189,8.167,12.14Z" transform="translate(-734.239 -310.583)" fill="#00adb5"/>
    <path id="Path_319" data-name="Path 319" d="M1100.987,424.3s-3.867-9.348-7.277-9.56c0,0,1.68,9.206,6.947,11.095Z" transform="translate(-737.512 -293.25)" fill="#00adb5"/>
    <path id="Path_320" data-name="Path 320" d="M1105.275,396.876s-2.378-10.152-5.8-11c0,0,.466,8.306,5.451,11.756Z" transform="translate(-741.373 -273.937)" fill="#00adb5"/>
    <path id="Path_321" data-name="Path 321" d="M1110.24,368.128s-2.5-8.095-5.27-9.328c0,0,.546,9.543,4.631,11.306Z" transform="translate(-745.047 -255.815)" fill="#00adb5"/>
    <path id="Path_322" data-name="Path 322" d="M1119.919,337.13l.5-14.27s-5.177,10.757-.877,16.775Z" transform="translate(-753.658 -231.764)" fill="#00adb5"/>
    <path id="Path_323" data-name="Path 323" d="M1132.135,300.832s3.728-10.42,4.631-11c0,0-7.311,6.761-6.6,15.458Z" transform="translate(-761.879 -209.66)" fill="#00adb5"/>
    <path id="Path_324" data-name="Path 324" d="M1041.168,662.128s6.556-.857,6.361,8.409c0,0-5.925.966-7.86-6.7Z" transform="translate(-701.348 -458.79)" fill="#00adb5"/>
    <path id="Path_325" data-name="Path 325" d="M1059.792,639.06s7.575-.023,6.947,9.461c0,0-6.361,1.138-8.458-7.668Z" transform="translate(-713.802 -443.367)" fill="#00adb5"/>
    <path id="Path_326" data-name="Path 326" d="M1074.4,617.167s6.877-3.225,11.277,5.1c0,0-6.351,2.686-11.885-3.754Z" transform="translate(-724.181 -428.304)" fill="#00adb5"/>
    <path id="Path_327" data-name="Path 327" d="M1087.512,592.6s7.043-3.43,11.177,4.7c0,0-7.337,2.527-11.76-3.414Z" transform="translate(-732.975 -411.792)" fill="#00adb5"/>
    <path id="Path_328" data-name="Path 328" d="M1095.591,567.093s6.778-6.474,12.187.073c0,0-6.924,5.329-12.5,1.37Z" transform="translate(-738.562 -393.295)" fill="#00adb5"/>
    <path id="Path_329" data-name="Path 329" d="M1102.585,539.75s6.818-6.616,12.183.3c0,0-7.651,5.435-12.428,1.085Z" transform="translate(-743.287 -374.999)" fill="#00adb5"/>
    <path id="Path_330" data-name="Path 330" d="M1106.93,507.59s5.253-8.27,11.439-6.424c0,0-5.451,8.756-11.379,8.366Z" transform="translate(-746.359 -350.908)" fill="#00adb5"/>
    <path id="Path_331" data-name="Path 331" d="M1111.336,480.262s5.293-10.413,10.3-8.6c0,0-3.817,8.005-10.437,10.357Z" transform="translate(-749.216 -331.201)" fill="#00adb5"/>
    <path id="Path_332" data-name="Path 332" d="M1111.649,453.633s5.442-8.2,10.539-7.195c0,0-4.449,8.313-11.068,9.567Z" transform="translate(-749.163 -314.406)" fill="#00adb5"/>
    <path id="Path_333" data-name="Path 333" d="M1114,424.352s4.218-9.2,7.645-9.262c0,0-2.024,9.133-7.36,10.824Z" transform="translate(-751.09 -293.484)" fill="#00adb5"/>
    <path id="Path_334" data-name="Path 334" d="M1116.5,399.635s4.687-9.315,8.21-9.335c0,0-2.4,7.966-8.055,10.152Z" transform="translate(-752.763 -276.895)" fill="#00adb5"/>
    <path id="Path_335" data-name="Path 335" d="M1118.63,371.4s3.506-7.707,6.411-8.581c0,0-1.753,9.395-6.024,10.625Z" transform="translate(-754.188 -258.505)" fill="#00adb5"/>
    <path id="Path_336" data-name="Path 336" d="M1123.074,341l7.836-11.938s-2.008,11.776-8.981,14.224Z" transform="translate(-756.397 -235.913)" fill="#00adb5"/>
    <path id="Path_337" data-name="Path 337" d="M1133.974,311.231s9.107-6.285,9.438-7.3c0,0-4.631,8.8-13.232,10.357Z" transform="translate(-761.918 -219.095)" fill="#00adb5"/>
    <path id="Path_338" data-name="Path 338" d="M1142.791,297.133s10.456-10.053,13.126-10.043a17.069,17.069,0,0,0-13.377,9.507Z" transform="translate(-770.189 -207.826)" fill="#00adb5"/>
    <path id="Path_339" data-name="Path 339" d="M1118.94,340.858l.38.05c1.965-15.379,4.83-24.479,8.065-25.593l-.126-.364C1123.829,316.141,1120.945,325.1,1118.94,340.858Z" transform="translate(-754.396 -226.47)" fill="#444053"/>
    <path id="Path_340" data-name="Path 340" d="M1110.2,427.739l.576.046c.122-1.436.215-2.9.278-4.37.549-12.729,1.4-24.419,2.517-33.182l-.331-.413c-1.121,8.783-2.213,20.823-2.762,33.572C1110.415,424.848,1110.322,426.31,1110.2,427.739Z" transform="translate(-748.547 -276.574)" fill="#444053"/>
    <path id="Path_341" data-name="Path 341" d="M976.371,571.877c.1-.043,10.231-4.568,20.747-15.359a83.434,83.434,0,0,0,15.167-21.5c4.863-9.9,7.827-22.067,8.819-33.887l-.6.281c-2.233,26.53-14.31,44.657-23.913,54.531-10.413,10.695-20.433,15.173-20.532,15.216Z" transform="translate(-658.78 -351.063)" fill="#444053"/>
    <path id="Path_342" data-name="Path 342" d="M407.554,132.69H89.7a2.832,2.832,0,0,0-2.832,2.832v8.25H410.386v-8.25A2.832,2.832,0,0,0,407.554,132.69Z" transform="translate(-63.728 -104.5)" fill="#393e46"/>
    <path id="Path_343" data-name="Path 343" d="M86.87,166.19V351.844a5.71,5.71,0,0,0,5.709,5.71h312.1a5.709,5.709,0,0,0,5.71-5.709V166.19Z" transform="translate(-63.728 -126.919)" fill="#fff"/>
    <circle id="Ellipse_19" data-name="Ellipse 19" cx="1.323" cy="1.323" r="1.323" transform="translate(26.943 32.324)" fill="#fa5959" opacity="0.8"/>
    <circle id="Ellipse_20" data-name="Ellipse 20" cx="1.323" cy="1.323" r="1.323" transform="translate(30.582 32.324)" fill="#fed253" opacity="0.8"/>
    <circle id="Ellipse_21" data-name="Ellipse 21" cx="1.323" cy="1.323" r="1.323" transform="translate(34.221 32.324)" fill="#8ccf4d" opacity="0.8"/>
    <rect id="Rectangle_1486" data-name="Rectangle 1486" width="260.003" height="114.329" transform="translate(53.215 70.227)" opacity="0.05"/>
    <rect id="Rectangle_1487" data-name="Rectangle 1487" width="256.034" height="111.808" transform="translate(55.2 71.093)" fill="#393e46"/>
    <path id="Path_344" data-name="Path 344" d="M343.251,349.38a25.471,25.471,0,1,0,25.471,25.471A25.471,25.471,0,0,0,343.251,349.38Zm4.568,26.083v12.061h-9V375.463a7.459,7.459,0,1,1,9,0Z" transform="translate(-218.254 -249.511)" fill="#00adb5"/>
    <path id="Path_345" data-name="Path 345" d="M343.251,349.38a25.471,25.471,0,1,0,25.471,25.471A25.471,25.471,0,0,0,343.251,349.38Zm4.568,26.083v12.061h-9V375.463a7.459,7.459,0,1,1,9,0Z" transform="translate(-218.254 -249.511)" opacity="0.05"/>
    <path id="Path_346" data-name="Path 346" d="M328.529,327.38a32.749,32.749,0,1,0,32.749,32.748,32.748,32.748,0,0,0-32.749-32.748Zm5.872,33.536v15.5H322.822v-15.5a9.593,9.593,0,1,1,11.578,0Z" transform="translate(-203.532 -234.788)" fill="#00adb5"/>
    <rect id="Rectangle_1488" data-name="Rectangle 1488" width="105.854" height="11.247" transform="translate(171.308 121.043)" fill="#fff"/>
    <rect id="Rectangle_1489" data-name="Rectangle 1489" width="22.825" height="11.247" transform="translate(254.337 141.552)" fill="#00adb5"/>
    <path id="Path_347" data-name="Path 347" d="M556.577,425.2h-1.915l1.7-1.7a.169.169,0,0,0,0-.235.165.165,0,0,0-.235,0l-1.7,1.7v-1.919a.165.165,0,0,0-.165-.165.169.169,0,0,0-.165.165v1.919l-1.7-1.714a.165.165,0,0,0-.235,0,.169.169,0,0,0,0,.235l1.7,1.7h-1.919a.169.169,0,0,0-.165.165.165.165,0,0,0,.165.165h1.919l-1.7,1.7a.169.169,0,0,0,0,.235.172.172,0,0,0,.235,0l1.7-1.7v1.915a.165.165,0,1,0,.331,0v-1.915l1.7,1.7a.172.172,0,0,0,.235,0,.169.169,0,0,0,0-.235l-1.7-1.7h1.915a.161.161,0,1,0,0-.321Z" transform="translate(-374.849 -298.698)" fill="#00adb5"/>
    <path id="Path_348" data-name="Path 348" d="M577.577,425.2h-1.915l1.7-1.7a.169.169,0,0,0,0-.235.165.165,0,0,0-.235,0l-1.7,1.7v-1.919a.165.165,0,0,0-.165-.165.169.169,0,0,0-.165.165v1.919l-1.7-1.714a.165.165,0,0,0-.235,0,.169.169,0,0,0,0,.235l1.7,1.7h-1.919a.169.169,0,0,0-.165.165.165.165,0,0,0,.165.165h1.919l-1.7,1.7a.169.169,0,0,0,0,.235.172.172,0,0,0,.235,0l1.7-1.7v1.915a.165.165,0,1,0,.331,0v-1.915l1.7,1.7a.172.172,0,0,0,.235,0,.169.169,0,0,0,0-.235l-1.7-1.7h1.915a.161.161,0,1,0,0-.321Z" transform="translate(-388.902 -298.698)" fill="#00adb5"/>
    <path id="Path_349" data-name="Path 349" d="M598.576,425.2h-1.915l1.7-1.7a.169.169,0,0,0,0-.235.165.165,0,0,0-.235,0l-1.7,1.7v-1.919a.165.165,0,0,0-.165-.165.169.169,0,0,0-.165.165v1.919l-1.7-1.714a.165.165,0,0,0-.235,0,.169.169,0,0,0,0,.235l1.7,1.7h-1.919a.169.169,0,0,0-.165.165.165.165,0,0,0,.165.165h1.919l-1.7,1.7a.169.169,0,0,0,0,.235.172.172,0,0,0,.235,0l1.7-1.7v1.915a.165.165,0,1,0,.331,0v-1.915l1.7,1.7a.172.172,0,0,0,.235,0,.169.169,0,0,0,0-.235l-1.7-1.7h1.915a.161.161,0,1,0,0-.321Z" transform="translate(-402.955 -298.698)" fill="#00adb5"/>
    <path id="Path_350" data-name="Path 350" d="M619.576,425.2h-1.915l1.7-1.7a.169.169,0,0,0,0-.235.165.165,0,0,0-.235,0l-1.7,1.7v-1.919a.165.165,0,0,0-.165-.165.169.169,0,0,0-.165.165v1.919l-1.7-1.714a.165.165,0,0,0-.235,0,.169.169,0,0,0,0,.235l1.7,1.7h-1.919a.169.169,0,0,0-.165.165.165.165,0,0,0,.165.165h1.919l-1.7,1.7a.169.169,0,0,0,0,.235.172.172,0,0,0,.235,0l1.7-1.7v1.915a.165.165,0,1,0,.331,0v-1.915l1.7,1.7a.172.172,0,0,0,.235,0,.169.169,0,0,0,0-.235l-1.7-1.7h1.915a.161.161,0,1,0,0-.321Z" transform="translate(-417.009 -298.698)" fill="#00adb5"/>
    <path id="Path_351" data-name="Path 351" d="M640.577,425.2h-1.915l1.7-1.7a.169.169,0,0,0,0-.235.165.165,0,0,0-.235,0l-1.7,1.7v-1.919a.165.165,0,0,0-.165-.165.169.169,0,0,0-.165.165v1.919l-1.7-1.714a.165.165,0,0,0-.235,0,.169.169,0,0,0,0,.235l1.7,1.7h-1.919a.169.169,0,0,0-.165.165.165.165,0,0,0,.165.165h1.919l-1.7,1.7a.169.169,0,0,0,0,.235.172.172,0,0,0,.235,0l1.7-1.7v1.915a.165.165,0,1,0,.331,0v-1.915l1.7,1.7a.172.172,0,0,0,.235,0,.169.169,0,0,0,0-.235l-1.7-1.7h1.915a.161.161,0,1,0,0-.321Z" transform="translate(-431.062 -298.698)" fill="#00adb5"/>
    <path id="Path_352" data-name="Path 352" d="M661.576,425.2h-1.915l1.7-1.7a.169.169,0,0,0,0-.235.165.165,0,0,0-.235,0l-1.7,1.7v-1.919a.165.165,0,0,0-.165-.165.169.169,0,0,0-.165.165v1.919l-1.7-1.714a.165.165,0,0,0-.235,0,.169.169,0,0,0,0,.235l1.7,1.7h-1.919a.169.169,0,0,0-.165.165.165.165,0,0,0,.165.165h1.919l-1.7,1.7a.169.169,0,0,0,0,.235.172.172,0,0,0,.235,0l1.7-1.7v1.915a.165.165,0,1,0,.331,0v-1.915l1.7,1.7a.172.172,0,0,0,.235,0,.169.169,0,0,0,0-.235l-1.7-1.7h1.915a.161.161,0,1,0,0-.321Z" transform="translate(-445.115 -298.698)" fill="#00adb5"/>
    <path id="Path_353" data-name="Path 353" d="M682.577,425.2h-1.915l1.7-1.7a.169.169,0,0,0,0-.235.165.165,0,0,0-.235,0l-1.7,1.7v-1.919a.165.165,0,0,0-.165-.165.169.169,0,0,0-.165.165v1.919l-1.7-1.714a.165.165,0,0,0-.235,0,.169.169,0,0,0,0,.235l1.7,1.7h-1.919a.169.169,0,0,0-.165.165.165.165,0,0,0,.165.165h1.919l-1.7,1.7a.169.169,0,0,0,0,.235.172.172,0,0,0,.235,0l1.7-1.7v1.915a.165.165,0,1,0,.331,0v-1.915l1.7,1.7a.172.172,0,0,0,.235,0,.169.169,0,0,0,0-.235l-1.7-1.7h1.915a.161.161,0,1,0,0-.321Z" transform="translate(-459.169 -298.698)" fill="#00adb5"/>
    <path id="Path_354" data-name="Path 354" d="M703.577,425.2h-1.915l1.7-1.7a.169.169,0,0,0,0-.235.165.165,0,0,0-.235,0l-1.7,1.7v-1.919a.165.165,0,0,0-.165-.165.169.169,0,0,0-.165.165v1.919l-1.7-1.714a.165.165,0,0,0-.235,0,.169.169,0,0,0,0,.235l1.7,1.7h-1.919a.169.169,0,0,0-.165.165.165.165,0,0,0,.165.165h1.919l-1.7,1.7a.169.169,0,0,0,0,.235.172.172,0,0,0,.235,0l1.7-1.7v1.915a.165.165,0,1,0,.331,0v-1.915l1.7,1.7a.172.172,0,0,0,.235,0,.169.169,0,0,0,0-.235l-1.7-1.7h1.915a.161.161,0,1,0,0-.321Z" transform="translate(-473.222 -298.698)" fill="#00adb5"/>
    <path id="Path_355" data-name="Path 355" d="M724.576,425.2h-1.915l1.7-1.7a.169.169,0,0,0,0-.235.165.165,0,0,0-.235,0l-1.7,1.7v-1.919a.165.165,0,0,0-.165-.165.169.169,0,0,0-.165.165v1.919l-1.7-1.714a.165.165,0,0,0-.235,0,.169.169,0,0,0,0,.235l1.7,1.7h-1.919a.169.169,0,0,0-.165.165.165.165,0,0,0,.165.165h1.919l-1.7,1.7a.169.169,0,0,0,0,.235.172.172,0,0,0,.235,0l1.7-1.7v1.915a.165.165,0,1,0,.331,0v-1.915l1.7,1.7a.172.172,0,0,0,.235,0,.169.169,0,0,0,0-.235l-1.7-1.7h1.915a.161.161,0,1,0,0-.321Z" transform="translate(-487.275 -298.698)" fill="#00adb5"/>
    <path id="Path_356" data-name="Path 356" d="M745.577,425.2h-1.915l1.7-1.7a.169.169,0,0,0,0-.235.166.166,0,0,0-.235,0l-1.7,1.7v-1.919a.165.165,0,0,0-.165-.165.169.169,0,0,0-.165.165v1.919l-1.7-1.714a.165.165,0,0,0-.235,0,.169.169,0,0,0,0,.235l1.7,1.7h-1.919a.169.169,0,0,0-.165.165.165.165,0,0,0,.165.165h1.919l-1.7,1.7a.169.169,0,0,0,0,.235.172.172,0,0,0,.235,0l1.7-1.7v1.915a.165.165,0,1,0,.331,0v-1.915l1.7,1.7a.172.172,0,0,0,.235,0,.169.169,0,0,0,0-.235l-1.7-1.7h1.915a.161.161,0,1,0,0-.321Z" transform="translate(-501.329 -298.698)" fill="#00adb5"/>
    <path id="Path_357" data-name="Path 357" d="M766.576,425.2h-1.915l1.7-1.7a.169.169,0,0,0,0-.235.165.165,0,0,0-.235,0l-1.7,1.7v-1.919a.165.165,0,0,0-.165-.165.169.169,0,0,0-.165.165v1.919l-1.7-1.714a.165.165,0,0,0-.235,0,.169.169,0,0,0,0,.235l1.7,1.7h-1.919a.169.169,0,0,0-.165.165.165.165,0,0,0,.165.165h1.919l-1.7,1.7a.169.169,0,0,0,0,.235.172.172,0,0,0,.235,0l1.7-1.7v1.915a.165.165,0,1,0,.331,0v-1.915l1.7,1.7a.172.172,0,0,0,.235,0,.169.169,0,0,0,0-.235l-1.7-1.7h1.915a.161.161,0,1,0,0-.321Z" transform="translate(-515.382 -298.698)" fill="#00adb5"/>
    <path id="Path_358" data-name="Path 358" d="M835.667,495.2a5.923,5.923,0,0,0-.149-1.188c-.3-1.118-.969-2.471-2.074-2.808a17.412,17.412,0,0,1-3.288-1.389c-.2-3.546.615-7.175-.271-10.612a27.01,27.01,0,0,1-1.022-3.748c-.182-1.6.255-3.308-.384-4.783a4.721,4.721,0,0,0-2.8-2.415,14.9,14.9,0,0,0-3.728-.662c-1.588-.129-6.728-.738-8.521.681h0a1.871,1.871,0,0,0-.331.331h0a1.305,1.305,0,0,0-.106.172l-.017.026a1.354,1.354,0,0,0-.089.215h0a1.69,1.69,0,0,0-.056.248v.6c.023.3.066.6.066.89a1.914,1.914,0,0,1-.04.437,3.056,3.056,0,0,1-.549,1.072h0l-.06.086c-.036.053-.073.1-.106.155s-.059.093-.086.139-.053.076-.076.119a1.612,1.612,0,0,0-.086.169c0,.033-.036.063-.05.1a1.65,1.65,0,0,0-.1.278,1.845,1.845,0,0,0-.02.88,3.276,3.276,0,0,0,.453,1.042c.083.136.172.268.265.4l.232.314a7.147,7.147,0,0,0-.069.926,6.844,6.844,0,0,0,2.612,5.378,20.262,20.262,0,0,1-.042,4.2c-.03.291-.066.586-.106.877s-.07.483-.109.724a3.357,3.357,0,0,1-1.446-.109,6.8,6.8,0,0,0-.661-.255c-.963-.242-1.945.718-2.9.427a.39.39,0,0,1-.043.132,1.3,1.3,0,0,0-.662-.2,2.413,2.413,0,0,1-1.436-.824l-1.26-1.188a1.39,1.39,0,0,1-.218-.245,1.712,1.712,0,0,1-.152-.407,4.69,4.69,0,0,0-1.221-1.75.827.827,0,0,0-.361-.261.555.555,0,0,0-.166,0,1.458,1.458,0,0,0-.109-.132,3.1,3.1,0,0,0-.275-.278c-.6-.556-.662-1.032-1.184-1.654a15.888,15.888,0,0,1-1.237-1.869c-.043-.347-.1-.7-.175-1.065a13.7,13.7,0,0,0-.724-2.415l-.662-1.465-.076.076c-.48-.715-.992-1.1-1.452-1.012-.771.159-1.151,1.654-1.029,3.609l.265,1.985a.613.613,0,0,0,.036.149,3.668,3.668,0,0,0-.073.715c0,.278.258.483.394.731a2.068,2.068,0,0,1,.331,1.128c-.016.142-.059.278-.066.417a1.6,1.6,0,0,0,.311.86l1.654,2.779.331.582.02.026a1.414,1.414,0,0,0,.443.509,6.062,6.062,0,0,0,.546,2.008c.056.126.119.245.185.364a11.7,11.7,0,0,0,1.561,2.028l.787.883c.777.867,1.555,1.737,2.4,2.537a3.212,3.212,0,0,0,1.072.751,1.214,1.214,0,0,0,1.2-.175v1.231a.691.691,0,0,1,.523,1.088,27.282,27.282,0,0,1-2.448,5.18,11.028,11.028,0,0,1,2.051,1.565,9.214,9.214,0,0,1,1.068,1.446c.03.245.053.486.066.728.245,3.943-1.28,7.856-2.646,11.614a9.049,9.049,0,0,0-.791,3.288,6.452,6.452,0,0,0-.741.533,4.906,4.906,0,0,1,.136,2.1,3.716,3.716,0,0,1-.275,1.323,9.348,9.348,0,0,1-.476.85,12.621,12.621,0,0,0-1.217,5.035c-.1,1.042.3,2.316-.172,3.248a13.291,13.291,0,0,0-1.654,5.088,5.093,5.093,0,0,1-.152,1.188c-.1.331-.284.612-.377.936a4.007,4.007,0,0,0-.066,1.323,12.665,12.665,0,0,1-.695,4.667,6.346,6.346,0,0,0-.546,3.659,5.157,5.157,0,0,0-1.4,3.073,4.836,4.836,0,0,1-.106.877,4.265,4.265,0,0,1-.4.844,7.384,7.384,0,0,0-.9,3.97,11.043,11.043,0,0,0-1.783,4.658c-.294,1.651-.423,3.331-.8,4.962-.5,2.157-1.413,4.337-1.591,6.546a4.611,4.611,0,0,0-1.74,3.265,14.536,14.536,0,0,1-.764,3.728c-.271.6-.662,1.141-.92,1.756a8.069,8.069,0,0,0-.4,1.512,5.9,5.9,0,0,0-.1,2.481,3.743,3.743,0,0,1-.969.738c.053-.205.1-.41.132-.619-.853.774-2.4.5-3.083,1.432a1.4,1.4,0,0,0,.331,1.915,2.647,2.647,0,0,0,.685.294,10.941,10.941,0,0,0,5.055.781,1.509,1.509,0,0,0,.572-.182,1.842,1.842,0,0,0,.533-.615q.382-.605.761-1.211a15.714,15.714,0,0,0,1.856.433c.063.529.109,1.059.132,1.588.331.066.774.086.93-.222a.8.8,0,0,0,.056-.367c0-.235.033-.546.053-.863h.066a6.284,6.284,0,0,0,2.927-.592c-.354-2.931.814-5.8,1.826-8.568,1.068-2.918,1.985-5.888,2.908-8.859.662-2.091,1.393-4.115,2.041-6.209q1.224-3.969,2.458-7.939c.357-1.164.718-2.316,1.128-3.473a54.1,54.1,0,0,1,3.066-6.824c.331-.625.662-1.244.933-1.892.331-.791.566-1.618.83-2.435a37.714,37.714,0,0,1,2.077-4.889c.023-.043.04-.083.063-.122.268,1.095.536,2.206.714,3.308a12.57,12.57,0,0,1,.056,4.089,13.483,13.483,0,0,0-.423,2.772,17.115,17.115,0,0,0,1.082,3.715,14.142,14.142,0,0,1,.37,2.845c.093,1.489.9,3.159.331,4.538-1.77,4.37-.913,9.305-1.922,13.893-.519,2.355-2.11,4.568-1.985,6.976q.132,2.564.45,5.114a4.868,4.868,0,0,0,.414,1.551,5.7,5.7,0,0,0,.453.741c-.146.056-.268.205-.374.519a2.041,2.041,0,0,0,.734,2.316,3.215,3.215,0,0,0,.956.331,5.032,5.032,0,0,0,1.383.192,3.234,3.234,0,0,0,.433-.053,15.761,15.761,0,0,0,1.565.562,3.382,3.382,0,0,0,.043.407.506.506,0,0,0,.172.374.516.516,0,0,0,.265.046h1.8v-.45a1.478,1.478,0,0,0,1.141-.371,1.765,1.765,0,0,0,.331-.688q.734-2.491,1.459-4.985a15.939,15.939,0,0,0,.711-5.69c-.638-6.1.764-12.213.308-18.326a43.894,43.894,0,0,1,.562-11c.149-.82.331-1.654.4-2.471.146-1.542-.033-3.1.076-4.631.036-.536.109-1.068.175-1.6a76.9,76.9,0,0,0,.711-9.973,31.4,31.4,0,0,0-.205-3.308,1.889,1.889,0,0,0,.9-.529,2.25,2.25,0,0,0,.215-1.412,10.24,10.24,0,0,1,.89-3.381,40.2,40.2,0,0,0,1.25-4.651,16.243,16.243,0,0,0,.556-3.887,3.965,3.965,0,0,0-.02-.4,1.025,1.025,0,0,0,.3-.331,1.923,1.923,0,0,0,.159-.612c.119-.844.241-1.69.361-2.537q.132-.91.261-1.816l1.052-7.34c.089-.638.182-1.274.271-1.909l.275-1.9c.03-.225.063-.45.086-.662C836.524,498.533,835.753,496.734,835.667,495.2Zm-8.776,27.482a6.046,6.046,0,0,1-.662-2.875h-.036a1.474,1.474,0,0,0-.043-.933c-.1-.241-.281-.447-.39-.688a2.52,2.52,0,0,1-.179-.926,25.25,25.25,0,0,1,.473-6c.043-.232.089-.466.132-.7a1.727,1.727,0,0,0,.377-.294,2.68,2.68,0,0,0,.427-.662c.374-.751.714-1.515,1.029-2.292.1-.251.251-.543.506-.605-.053,1.935.146,3.91-.642,5.657a3.574,3.574,0,0,0-.331.893c-.073.493.132.992.059,1.482-.036.255-.146.49-.188.741a.724.724,0,0,0,.192.7.579.579,0,0,0,.142.073c-.02.132-.036.268-.05.4-.026.271-.04.526-.056.685a21.357,21.357,0,0,0-.089,2.435c0,.877.033,1.753.02,2.646a1.8,1.8,0,0,1-.126.751,1.3,1.3,0,0,1-.251.331A8.623,8.623,0,0,0,826.891,522.681Z" transform="translate(-531.219 -328.46)" fill="url(#linear-gradient)"/>
    <ellipse id="Ellipse_22" data-name="Ellipse 22" cx="1.866" cy="5.283" rx="1.866" ry="5.283" transform="matrix(0.98, -0.201, 0.201, 0.98, 265.614, 145.863)" fill="#fbbebe"/>
    <path id="Path_359" data-name="Path 359" d="M878.192,837.061a2,2,0,0,0,.734,2.292,3.268,3.268,0,0,0,.949.331,5.014,5.014,0,0,0,1.379.189c.572-.026,1.121-.251,1.694-.331a.264.264,0,0,1,.2.026.281.281,0,0,1,.073.232,8.759,8.759,0,0,0,.073.973.5.5,0,0,0,.172.374.516.516,0,0,0,.265.046h1.793a17.485,17.485,0,0,0-.513-4.677,1.048,1.048,0,0,0-.132-.331,1.1,1.1,0,0,0-.572-.331,3.2,3.2,0,0,0-1.386-.241,4.059,4.059,0,0,0-1.555.761,2.369,2.369,0,0,1-1.763.427C879,836.641,878.5,836.141,878.192,837.061Z" transform="translate(-593.217 -574.898)" fill="#3f3d56"/>
    <path id="Path_360" data-name="Path 360" d="M794.327,834.234a4.96,4.96,0,0,1-1.809,1.231l-.3.146a.212.212,0,0,0-.1.083.179.179,0,0,0,.033.149,2.14,2.14,0,0,0,2.428.883,1.288,1.288,0,0,0,.533-.278,1.748,1.748,0,0,0,.41-1.065,2.18,2.18,0,0,0-.05-1.221C795.005,833.126,794.837,833.6,794.327,834.234Z" transform="translate(-535.677 -573.524)" fill="#fbbebe"/>
    <path id="Path_361" data-name="Path 361" d="M797.1,838.7a.806.806,0,0,1-.056.367c-.156.3-.589.288-.926.222a22.266,22.266,0,0,0-.407-3.341c-.642-.03-1.1.579-1.449,1.125l-.886,1.406a1.835,1.835,0,0,1-.529.615,1.568,1.568,0,0,1-.572.182,10.848,10.848,0,0,1-5.038-.781,2.67,2.67,0,0,1-.685-.291,1.4,1.4,0,0,1-.331-1.912c.685-.926,2.223-.662,3.076-1.429a7.7,7.7,0,0,1-.437,1.578c1.141-.172,1.909-1.217,2.828-1.915a1.74,1.74,0,0,1,.807-.384,1.777,1.777,0,0,1,.661.069,7.761,7.761,0,0,1,2.911,1.432,3.138,3.138,0,0,1,1.042,1.085A8.035,8.035,0,0,1,797.1,838.7Z" transform="translate(-531.579 -573.91)" fill="#3f3d56"/>
    <circle id="Ellipse_23" data-name="Ellipse 23" cx="6.834" cy="6.834" r="6.834" transform="translate(281.445 141.976)" fill="#fbbebe"/>
    <path id="Path_362" data-name="Path 362" d="M914.754,614.953a16.21,16.21,0,0,1-.552,3.867,39.9,39.9,0,0,1-1.25,4.631,10.194,10.194,0,0,0-.883,3.374,2.243,2.243,0,0,1-.218,1.409,2.058,2.058,0,0,1-.966.552,1.207,1.207,0,0,0-.814.724,5.11,5.11,0,0,1-.688-1.515q-.89-2.726-1.654-5.481a.711.711,0,0,1,.046-.662.819.819,0,0,1,.288-.162,2.979,2.979,0,0,0,.916-.589,1.342,1.342,0,0,0,.3-.394,1.782,1.782,0,0,0,.129-.748c0-.877,0-1.75-.023-2.626a21.935,21.935,0,0,1,.093-2.425c0-.159.03-.414.056-.685.05-.519.149-1.121.43-1.323.42-.281,1.677.1,2.153.162.82.112,1.654.245,2.454.4A6.553,6.553,0,0,1,914.754,614.953Z" transform="translate(-613.011 -425.793)" fill="#3f3d56"/>
    <path id="Path_363" data-name="Path 363" d="M830.529,506.609c-.265.529-.9.784-1.389,1.118l-1.677,1.151a1.118,1.118,0,0,1-.83.284,1.092,1.092,0,0,1-.619-.579.107.107,0,0,0,0-.026l-.347-.582-1.654-2.772a1.579,1.579,0,0,1-.308-.853c0-.142.05-.275.063-.417a2,2,0,0,0-.331-1.125c-.132-.248-.4-.453-.39-.731a2.647,2.647,0,0,1,.185-1.068,2.163,2.163,0,0,1,.724-.774c.155-.112.314-.218.48-.331a.945.945,0,0,1,.288-.132c.275-.056.546.172.824.182,1.194.8,1.654,2.316,2.594,3.407.529.622.582,1.1,1.181,1.654.1.086.188.179.278.275a1.918,1.918,0,0,1,.3.43C830.007,506,830.665,506.338,830.529,506.609Z" transform="translate(-556.381 -350.148)" fill="#3f3d56"/>
    <path id="Path_364" data-name="Path 364" d="M874.9,507.825a6.158,6.158,0,0,1,.734,3.331,2.08,2.08,0,0,1-.288.877,2.833,2.833,0,0,1-2.345.906,1.383,1.383,0,0,0-1.019.331.926.926,0,0,0,.063,1.131,2.554,2.554,0,0,0,1.012.662,8.963,8.963,0,0,0,4.357.966c.695-.066,1.37-.268,2.061-.37a21.649,21.649,0,0,1,2.269-.126c.9-.033,1.8-.122,2.693-.212l2.375-.235a.529.529,0,0,0,.354-.129c.175-.205-.05-.506-.268-.662-1.26-.933-2.865-1.575-3.583-2.977a17.534,17.534,0,0,1-.678-2.163,18.173,18.173,0,0,1-.787-2.087,13.838,13.838,0,0,1-.109-1.925,2.583,2.583,0,0,0-.662-1.76,2.758,2.758,0,0,0-1.8-.579,5.826,5.826,0,0,0-4.386,1.422c-.3.3-.559.662-.87.933s-.734.351-.529.708.609.579.827.893A7.613,7.613,0,0,1,874.9,507.825Z" transform="translate(-589.019 -352.178)" fill="#fbbebe"/>
    <path id="Path_365" data-name="Path 365" d="M873.882,529.887a37.588,37.588,0,0,1-2.024,7.453,28.074,28.074,0,0,0-1.191,3.341c-.255,1.026-.205,2.124-.44,3.152-.291,1.28-.582,2.564-.817,3.854a25.27,25.27,0,0,0-.47,5.987,2.5,2.5,0,0,0,.179.923c.109.238.284.443.387.688a1.654,1.654,0,0,1-.093,1.323,3.831,3.831,0,0,1-.682,1.032c-3.083.92-6.381.619-9.593.814-2.961.179-5.954.787-8.872.281a7.032,7.032,0,0,1,.695-4c1.373-3.748,2.891-7.651,2.646-11.578a12,12,0,0,0-.155-1.366,18.11,18.11,0,0,1,.88-8.359,14.346,14.346,0,0,0,.377-5.22,9.533,9.533,0,0,1-.023-1.71,3.007,3.007,0,0,1,.622-1.6c0-.023.03-.046.046-.07a.456.456,0,0,1,.248,0h0a.211.211,0,0,0,.165,0l.036-.023a.083.083,0,0,1,.1,0c.076.046.119.205.284.235a6.58,6.58,0,0,0,.738.069,3.97,3.97,0,0,1,.88.126h.04a2.584,2.584,0,0,0,1.284-.109,3.415,3.415,0,0,0,.787-.3c.073-.079.529-.152.622-.208.3-.182.235-1.035.3-1.386a3.811,3.811,0,0,1,.248-1.025,1.747,1.747,0,0,1,1.416-.824,7.539,7.539,0,0,1,1.7.152c1.234.175,2.5.146,3.708.43a2.762,2.762,0,0,0,1.833.079c.152.036.175.169.175.331a2.122,2.122,0,0,1-.093.453c-.212.913.506,1.753,1.168,2.415a3.747,3.747,0,0,0,.976.777c.331.152.662.215.992.38a1.806,1.806,0,0,1,.662.605,2.528,2.528,0,0,1,.377.963A5.757,5.757,0,0,1,873.882,529.887Z" transform="translate(-574.531 -364.617)" fill="#3f3d56"/>
    <path id="Path_366" data-name="Path 366" d="M880.18,536.791a37.584,37.584,0,0,1-2.024,7.453,28.064,28.064,0,0,0-1.191,3.341c-.255,1.025-.205,2.124-.44,3.152-.291,1.28-.582,2.564-.817,3.854-.07.04-.142.076-.215.109a5.078,5.078,0,0,1-1.3.417,7.937,7.937,0,0,1-2.421-.079l-4.721-.632c-1.885-.255-3.893-.562-5.293-1.839a11.29,11.29,0,0,1-1.846-2.521,12,12,0,0,0-.155-1.366,18.111,18.111,0,0,1,.88-8.359,14.346,14.346,0,0,0,.377-5.22,9.534,9.534,0,0,1-.023-1.71,3.007,3.007,0,0,1,.622-1.6,2.349,2.349,0,0,1,.294-.066h0a1.476,1.476,0,0,1,.2-.026h.1a1.442,1.442,0,0,1,.331.04,5.992,5.992,0,0,1,.661.255h.04a2.532,2.532,0,0,0,.88.126c.437,0,.887-.069,1.323-.1a2.441,2.441,0,0,1,1.568.281,9.39,9.39,0,0,1,.873.8,3.749,3.749,0,0,0,1.1.6,11.706,11.706,0,0,0,8.806-.185,1.724,1.724,0,0,1,.883-.225,1.653,1.653,0,0,1,.635.271c.2.116.394.228.6.331a2.527,2.527,0,0,1,.377.963A5.756,5.756,0,0,1,880.18,536.791Z" transform="translate(-580.828 -371.521)" opacity="0.1"/>
    <path id="Path_367" data-name="Path 367" d="M877.281,533.317a17.654,17.654,0,0,1-3.771-1.654,1.69,1.69,0,0,0-.635-.271,1.775,1.775,0,0,0-.887.225,11.7,11.7,0,0,1-8.8.185,3.828,3.828,0,0,1-1.1-.6,9.889,9.889,0,0,0-.873-.8c-1.088-.7-2.593.122-3.811-.331a6.762,6.762,0,0,0-.662-.255c-.963-.241-1.942.718-2.888.427a16.1,16.1,0,0,0-.777,2.951,32.189,32.189,0,0,0-.215,3.48c0,.7-.033,1.4,0,2.094a.687.687,0,0,1,.523,1.085,27.117,27.117,0,0,1-2.441,5.164,11.218,11.218,0,0,1,2.044,1.561c1.158,1.224,1.727,2.941,2.977,4.072,1.409,1.273,3.417,1.584,5.293,1.836l4.72.632a8.067,8.067,0,0,0,2.425.083,5.1,5.1,0,0,0,1.293-.42,2.316,2.316,0,0,0,.721-.476,2.65,2.65,0,0,0,.427-.662c.374-.748.714-1.512,1.029-2.286.109-.275.275-.6.572-.619,1.753-1.581,3.407-3.2,5.16-4.783a11.433,11.433,0,0,0,1.882-1.985c.87-1.287.079-3.109,0-4.664a5.888,5.888,0,0,0-.149-1.181C879.051,535,878.383,533.651,877.281,533.317Z" transform="translate(-575.049 -370.236)" fill="#00adb5"/>
    <path id="Path_368" data-name="Path 368" d="M836.53,517.667c-.265.529-.9.784-1.389,1.118l-1.677,1.151a1.119,1.119,0,0,1-.83.284,1.092,1.092,0,0,1-.619-.579V519.4a2.219,2.219,0,0,1,.106-.791,2.462,2.462,0,0,1,.741-.953,6.066,6.066,0,0,1,2.173-1.323.744.744,0,0,1,.4-.04.523.523,0,0,1,.146.063,1.918,1.918,0,0,1,.3.43C836.008,517.062,836.666,517.4,836.53,517.667Z" transform="translate(-562.382 -361.206)" opacity="0.1"/>
    <path id="Path_369" data-name="Path 369" d="M841.309,521.587a2.41,2.41,0,0,1-1.432-.82l-1.254-1.164a1.168,1.168,0,0,1-.218-.245,1.714,1.714,0,0,1-.152-.407,4.667,4.667,0,0,0-1.217-1.747.794.794,0,0,0-.361-.258.724.724,0,0,0-.4.04,6.05,6.05,0,0,0-2.173,1.323,2.471,2.471,0,0,0-.741.953,2.2,2.2,0,0,0-.106.791,6.074,6.074,0,0,0,.576,2.527c.056.122.119.245.185.364a11.453,11.453,0,0,0,1.555,2.021l.787.88c.774.867,1.548,1.733,2.388,2.531a3.156,3.156,0,0,0,1.072.748,1.2,1.2,0,0,0,1.231-.2,1.781,1.781,0,0,0,.351-.629,12.371,12.371,0,0,0,1.022-4.125,15.58,15.58,0,0,0-.073-1.71C842.3,521.858,841.872,521.623,841.309,521.587Z" transform="translate(-563.211 -361.639)" fill="#00adb5"/>
    <path id="Path_370" data-name="Path 370" d="M837.878,640.162a76.445,76.445,0,0,1-.708,9.947c-.066.533-.139,1.065-.175,1.6-.109,1.545.069,3.1-.076,4.631-.076.83-.248,1.654-.394,2.464a43.819,43.819,0,0,0-.562,10.966c.456,6.1-.943,12.2-.308,18.276a14.775,14.775,0,0,1-.2,3.536,14.986,14.986,0,0,1-.513,2.137q-.724,2.484-1.456,4.962a1.721,1.721,0,0,1-.331.688,1.568,1.568,0,0,1-1.24.367,14.309,14.309,0,0,1-5.438-1.687,1.894,1.894,0,0,1-.546-.331c-.361-.374-.331-.963-.49-1.456a13.843,13.843,0,0,0-.834-1.462,4.771,4.771,0,0,1-.36-1.505q-.331-2.54-.45-5.1c-.126-2.4,1.462-4.611,1.985-6.947.992-4.591.152-9.514,1.915-13.87.556-1.376-.251-3.043-.331-4.525a14.343,14.343,0,0,0-.37-2.838c-.331-1.244-1.029-2.415-1.078-3.7a13.608,13.608,0,0,1,.42-2.762,12.415,12.415,0,0,0-.056-4.079c-.175-1.111-.443-2.223-.711-3.308l-.06.122a37.38,37.38,0,0,0-2.074,4.879c-.265.81-.5,1.637-.827,2.425-.271.662-.605,1.267-.933,1.889a54.245,54.245,0,0,0-3.06,6.8c-.41,1.145-.771,2.316-1.128,3.463l-2.451,7.939c-.662,2.087-1.386,4.105-2.034,6.189-.916,2.977-1.833,5.928-2.9,8.839-.992,2.762-2.173,5.623-1.819,8.541a6.284,6.284,0,0,1-2.921.592,17.1,17.1,0,0,1-4.962-1.2,3.858,3.858,0,0,1-1.714-1.019c-.734-.9-.552-2.21-.331-3.351a8.1,8.1,0,0,1,.4-1.508c.252-.609.662-1.148.92-1.75a14.679,14.679,0,0,0,.758-3.715,4.584,4.584,0,0,1,1.733-3.258c.182-2.2,1.088-4.376,1.588-6.53.377-1.631.5-3.308.8-4.962a10.9,10.9,0,0,1,1.776-4.648,7.366,7.366,0,0,1,.9-3.97,4.339,4.339,0,0,0,.394-.844,4.844,4.844,0,0,0,.106-.873,5.164,5.164,0,0,1,1.4-3.066,6.222,6.222,0,0,1,.542-3.639,12.642,12.642,0,0,0,.695-4.654,4.078,4.078,0,0,1,.063-1.323c.093-.331.275-.612.38-.93a5.286,5.286,0,0,0,.149-1.187,13.736,13.736,0,0,1,1.654-5.074c.476-.933.073-2.2.172-3.238A12.519,12.519,0,0,1,814,632.074c.159-.284.331-.556.473-.85a3.682,3.682,0,0,0,.275-1.323,4.872,4.872,0,0,0-.136-2.091c1.77-1.472,4.185-1.885,6.487-1.985a40.443,40.443,0,0,0,6.884-.38c.662-.149,1.323-.354,2.021-.453a13.075,13.075,0,0,1,4.757.486,5.666,5.666,0,0,0,.662,2.868,30.789,30.789,0,0,1,2.451,11.816Z" transform="translate(-539.734 -433.903)" fill="#222831"/>
    <path id="Path_371" data-name="Path 371" d="M885.411,673.29l-3.8,8.548c-.175-1.111-.443-2.223-.711-3.308l-.06.122v-.179l2.071-4.555Z" transform="translate(-595.058 -466.274)" opacity="0.1"/>
    <path id="Path_372" data-name="Path 372" d="M918.49,614.953a1.429,1.429,0,0,1-.754.281,3.668,3.668,0,0,1-1.237-.169l-2.977-.744a1.457,1.457,0,0,1-.271-.1c.05-.519.149-1.121.43-1.323.42-.281,1.677.1,2.153.162.82.112,1.654.245,2.455.4A6.552,6.552,0,0,1,918.49,614.953Z" transform="translate(-616.747 -425.793)" opacity="0.1"/>
    <path id="Path_373" data-name="Path 373" d="M920.383,557.674c.063.275.152.546.205.824a6.285,6.285,0,0,1-.069,2.048l-.271,1.892-.271,1.9-1.049,7.32-.258,1.813L918.305,576a1.82,1.82,0,0,1-.159.609,1.267,1.267,0,0,1-1.035.612,3.754,3.754,0,0,1-1.237-.169l-2.977-.748a.934.934,0,0,1-.364-.149.718.718,0,0,1-.192-.7c.043-.251.152-.486.189-.738.073-.49-.132-.992-.06-1.479a3.682,3.682,0,0,1,.331-.89c.992-2.193.417-4.754.754-7.135a10.818,10.818,0,0,1,2.3-5.107,14.658,14.658,0,0,1,2.534-2.488,5.1,5.1,0,0,1,1.426-.992C920.409,556.506,920.283,557.257,920.383,557.674Z" transform="translate(-616.122 -388.196)" fill="#00adb5"/>
    <path id="Path_374" data-name="Path 374" d="M862.346,470.273c-.218.695.122,1.459-.033,2.167-.169.781-.9,1.323-1.111,2.107-.331,1.194.681,2.282,1.422,3.275,2.746,3.685,2.385,8.786,1.446,13.281a68.573,68.573,0,0,1-3.126,10.585,8.111,8.111,0,0,1-1.684,2.954,8.707,8.707,0,0,1,4.664-.453c1.932.536,3.6,2.411,5.557,1.985,1.178-.261,2-1.307,3.063-1.885,1.985-1.068,4.376-.4,6.589-.053a2.587,2.587,0,0,0,1.439-.073,2.392,2.392,0,0,0,.873-.8,8.158,8.158,0,0,0,1.7-4.4,5.644,5.644,0,0,0-1.624-4.343,9.28,9.28,0,0,1-1.393-1.323,4.108,4.108,0,0,1-.546-2c-.261-3.639.625-7.354-.288-10.873a26.849,26.849,0,0,1-1.016-3.738c-.182-1.6.251-3.308-.384-4.77a4.678,4.678,0,0,0-2.789-2.408,15.276,15.276,0,0,0-3.718-.662C869.577,468.685,863.1,467.908,862.346,470.273Z" transform="translate(-580.616 -329.289)" fill="#222831"/>
    <g id="Group_7" data-name="Group 7" transform="translate(278.644 140.226)" opacity="0.1">
      <path id="Path_375" data-name="Path 375" d="M867.509,501.052a68.438,68.438,0,0,1-3.109,10.542c.228-.453.42-.93.6-1.4a68.224,68.224,0,0,0,3.126-10.585c.943-4.5,1.3-9.593-1.442-13.281-.662-.88-1.512-1.833-1.482-2.865a3.526,3.526,0,0,0-.562,1.039c-.331,1.194.682,2.282,1.422,3.275C868.809,491.455,868.449,496.556,867.509,501.052Z" transform="translate(-862.7 -479.464)"/>
      <path id="Path_376" data-name="Path 376" d="M868.434,473.97a3.218,3.218,0,0,0,.582-1.115,5.668,5.668,0,0,0-.04-1.475,1.591,1.591,0,0,0-.549.758A6.544,6.544,0,0,0,868.434,473.97Z" transform="translate(-865.341 -471.38)"/>
      <path id="Path_377" data-name="Path 377" d="M882.068,566.941a2.381,2.381,0,0,1-.873.8,2.526,2.526,0,0,1-1.439.073c-2.213-.331-4.631-1.012-6.589.056-1.062.576-1.885,1.621-3.066,1.885-1.955.437-3.622-1.439-5.554-1.985a7.755,7.755,0,0,0-4.191.331,5.784,5.784,0,0,1-1.095,1.581,8.707,8.707,0,0,1,4.664-.453c1.932.536,3.6,2.411,5.557,1.985,1.178-.261,2-1.307,3.063-1.885,1.985-1.068,4.376-.4,6.589-.053a2.587,2.587,0,0,0,1.439-.073,2.391,2.391,0,0,0,.873-.8,8.892,8.892,0,0,0,1.37-2.62,9.618,9.618,0,0,1-.748,1.161Z" transform="translate(-859.26 -534.553)"/>
    </g>
  </g>
</svg>
