<svg xmlns="http://www.w3.org/2000/svg" width="363.789" height="308" viewBox="0 0 363.789 308">
  <g id="undraw_reading_book_re_kqpk" transform="translate(0 0)">
    <path id="Path_378" data-name="Path 378" d="M479.453,455.406c-1.768,0-3.555-.025-5.308-.075l.04-1.156c2.518.071,5.088.091,7.617.059l.017,1.157Q480.638,455.406,479.453,455.406Zm10.036-.268-.075-1.155c2.522-.135,5.076-.325,7.591-.564l.133,1.151c-2.535.241-5.108.433-7.65.569Zm-23.008-.18c-2.543-.177-5.112-.409-7.638-.69l.156-1.148c2.506.279,5.056.509,7.579.684Zm38.27-1.273-.191-1.144c2.505-.345,5.03-.746,7.5-1.192l.248,1.135c-2.491.449-5.035.853-7.559,1.2Zm-53.5-.423c-2.512-.387-5.048-.831-7.536-1.321l.27-1.131c2.47.487,4.986.928,7.479,1.311Zm68.553-2.293-.306-1.124c2.459-.552,4.932-1.163,7.351-1.814l.362,1.11c-2.437.656-4.929,1.271-7.407,1.827Zm-83.55-.663c-2.464-.6-4.944-1.25-7.37-1.946l.384-1.1c2.408.691,4.869,1.341,7.314,1.931Zm98.264-3.3-.418-1.093c2.387-.753,4.787-1.568,7.135-2.421l.473,1.075c-2.366.86-4.785,1.68-7.19,2.439ZM421.6,446.1c-2.393-.8-4.8-1.66-7.157-2.561l.495-1.067c2.337.894,4.727,1.749,7.1,2.542Zm127.149-4.264-.528-1.053c2.292-.945,4.6-1.955,6.847-3l.58,1.031c-2.269,1.053-4.59,2.07-6.9,3.022Zm-141.322-1.154c-2.3-1-4.609-2.054-6.862-3.147l.6-1.021c2.236,1.085,4.527,2.135,6.81,3.123ZM562.389,435.5l-.631-1c2.2-1.139,4.392-2.336,6.521-3.558l.681.978c-2.144,1.232-4.355,2.439-6.57,3.585Zm-168.518-1.4c-2.188-1.182-4.379-2.428-6.512-3.7l.7-.966c2.116,1.266,4.291,2.5,6.462,3.675Zm181.473-6.041-.73-.948c2.07-1.313,4.135-2.688,6.139-4.086l.777.918C579.511,425.356,577.429,426.741,575.343,428.064Zm-194.3-1.63c-2.058-1.357-4.113-2.778-6.11-4.226l.8-.9c1.981,1.436,4.021,2.847,6.063,4.193ZM587.5,419.578l-.822-.885c1.929-1.478,3.849-3.018,5.707-4.578l.865.85c-1.872,1.572-3.806,3.124-5.751,4.613Zm-218.461-1.844c-1.916-1.524-3.82-3.108-5.658-4.711l.883-.835c1.824,1.59,3.714,3.163,5.615,4.676Zm229.726-7.617-.908-.813c1.778-1.636,3.538-3.329,5.228-5.032l.947.774c-1.7,1.716-3.475,3.422-5.267,5.071Zm-240.8-2.032c-1.758-1.678-3.495-3.414-5.161-5.156l.962-.758c1.654,1.73,3.377,3.451,5.122,5.117Zm251.074-8.322-.985-.735c1.607-1.775,3.188-3.607,4.7-5.445l1.021.693C612.257,396.129,610.663,397.976,609.044,399.764Zm-261.132-2.2c-1.579-1.811-3.134-3.681-4.621-5.558l1.035-.676c1.476,1.862,3.019,3.718,4.586,5.516ZM618.241,388.6l-1.054-.65c1.422-1.9,2.814-3.857,4.138-5.815l1.087.606c-1.335,1.973-2.739,3.944-4.171,5.859Zm-279.285-2.332c-1.389-1.933-2.749-3.923-4.041-5.914l1.1-.588c1.283,1.976,2.632,3.951,4.011,5.869Zm287.327-9.555-1.116-.56c1.224-2.011,2.413-4.076,3.535-6.138l1.143.513c-1.131,2.077-2.33,4.158-3.563,6.184Zm-295.106-2.434c-1.189-2.04-2.342-4.134-3.426-6.221l1.153-.494c1.077,2.072,2.22,4.149,3.4,6.174ZM633.091,364.2l-1.168-.465c1.016-2.106,1.991-4.264,2.9-6.411l1.19.415c-.915,2.165-1.9,4.338-2.922,6.461Zm-308.448-2.5c-.977-2.129-1.913-4.308-2.782-6.476l1.2-.4c.862,2.152,1.79,4.313,2.76,6.426ZM638.6,351.16l-1.21-.364c.8-2.176,1.546-4.4,2.231-6.612l1.228.313c-.69,2.228-1.447,4.47-2.248,6.663Zm-319.2-2.536c-.759-2.206-1.471-4.459-2.118-6.7l1.233-.294c.642,2.222,1.35,4.458,2.1,6.647Zm323.353-10.877-1.242-.262c.571-2.231,1.093-4.509,1.551-6.77l1.254.209c-.462,2.279-.988,4.574-1.563,6.823Zm-327.247-2.6c-.532-2.261-1.013-4.564-1.43-6.846l1.257-.19c.414,2.266.892,4.551,1.419,6.794Zm330.025-11.1-1.264-.157c.343-2.267.632-4.578.861-6.871l1.27.1c-.23,2.31-.522,4.639-.867,6.924ZM313,321.4c-.3-2.291-.547-4.625-.734-6.936l1.272-.085c.185,2.294.43,4.609.728,6.884Zm333.923-11.232-1.274-.052c.113-2.293.171-4.62.171-6.914h1.275c0,2.312-.058,4.655-.172,6.966Zm-335.044-2.663c-.044-1.419-.066-2.867-.066-4.3q0-1.336.025-2.667l1.275.02q-.025,1.321-.025,2.647c0,1.425.022,2.862.065,4.271Zm333.932-5.917c-.026-2.295-.111-4.621-.251-6.914l1.272-.064c.141,2.31.227,4.654.253,6.966Zm-332.395-7.942-1.272-.072c.159-2.313.379-4.648.652-6.943l1.267.125c-.272,2.277-.489,4.6-.647,6.89Zm331.548-5.865c-.255-2.282-.571-4.59-.941-6.862l1.261-.169c.372,2.289.692,4.615.949,6.914ZM315.055,279.9l-1.26-.177c.391-2.29.844-4.6,1.349-6.86l1.249.229c-.5,2.246-.951,4.536-1.338,6.808Zm327.68-5.8c-.486-2.258-1.035-4.531-1.631-6.755l1.239-.274c.6,2.241,1.153,4.532,1.643,6.806Zm-324.66-7.755-1.237-.281c.619-2.242,1.3-4.5,2.038-6.719l1.221.333C319.37,261.881,318.689,264.124,318.075,266.349Zm321.058-5.68c-.711-2.2-1.488-4.421-2.309-6.59l1.205-.376c.828,2.186,1.611,4.42,2.327,6.641Zm-316.67-7.581-1.2-.384c.847-2.188,1.762-4.386,2.719-6.534l1.182.434c-.95,2.131-1.857,4.313-2.7,6.484Zm311.719-5.495c-.93-2.13-1.926-4.268-2.96-6.354l1.163-.475c1.043,2.1,2.046,4.256,2.983,6.4Zm-306-7.351-1.158-.483c1.065-2.105,2.2-4.216,3.368-6.275l1.133.531C330.366,236.058,329.242,238.153,328.185,240.242Zm299.758-5.229c-1.141-2.043-2.35-4.091-3.593-6.085l1.109-.57c1.253,2.01,2.471,4.073,3.62,6.132Zm-292.761-7.077-1.1-.578c1.272-2,2.613-4.012,3.986-5.964l1.074.623c-1.363,1.938-2.694,3.93-3.956,5.919ZM620.453,223c-1.347-1.947-2.758-3.887-4.192-5.765l1.047-.66c1.446,1.893,2.868,3.847,4.225,5.809Zm-277.066-6.727-1.042-.667c1.47-1.892,3.006-3.779,4.568-5.606l1.007.709C346.371,212.519,344.846,214.391,343.388,216.269Zm268.394-4.625c-1.536-1.827-3.136-3.643-4.756-5.4L608,205.5c1.632,1.768,3.244,3.6,4.792,5.439Zm-259.054-6.307-.97-.751c1.649-1.759,3.368-3.509,5.109-5.2l.932.789C356.071,201.853,354.365,203.591,352.728,205.336ZM602,201.049c-1.712-1.692-3.489-3.37-5.279-4.985l.9-.821c1.8,1.628,3.594,3.318,5.319,5.023Zm-238.882-5.824-.891-.827c1.823-1.619,3.709-3.22,5.606-4.758l.849.864c-1.883,1.526-3.755,3.114-5.564,4.722ZM591.2,191.3c-1.877-1.545-3.815-3.07-5.759-4.53l.813-.892c1.959,1.472,3.912,3.007,5.8,4.565Zm-216.722-5.285-.8-.9c1.972-1.458,4.009-2.9,6.057-4.273l.759.93C378.457,183.143,376.435,184.57,374.478,186.017Zm204.982-3.534c-2.025-1.384-4.108-2.743-6.192-4.037l.719-.955c2.1,1.3,4.2,2.673,6.24,4.068Zm-192.755-4.694-.712-.96c2.11-1.289,4.283-2.551,6.457-3.753l.662.989C390.956,175.257,388.8,176.51,386.706,177.789Zm180.172-3.12c-2.154-1.211-4.367-2.391-6.575-3.508l.62-1.011c2.226,1.126,4.455,2.315,6.626,3.534ZM399.7,170.612l-.612-1.016c2.233-1.109,4.522-2.185,6.8-3.2l.56,1.04c-2.265,1.006-4.536,2.074-6.752,3.174Zm153.854-2.682c-2.268-1.026-4.592-2.017-6.906-2.946l.516-1.059c2.332.936,4.674,1.935,6.96,2.969Zm-140.2-3.382-.507-1.062c2.333-.918,4.72-1.8,7.093-2.617l.453,1.082c-2.356.812-4.724,1.686-7.04,2.6ZM539.6,162.329c-2.36-.831-4.776-1.624-7.181-2.356l.406-1.1c2.423.738,4.857,1.537,7.236,2.375Zm-112.022-2.683-.4-1.1c2.423-.721,4.895-1.4,7.347-2.018l.341,1.115c-2.434.613-4.886,1.287-7.29,2Zm97.566-1.721c-2.431-.629-4.911-1.215-7.371-1.742l.293-1.126c2.479.53,4.977,1.121,7.428,1.755Zm-82.891-1.977-.284-1.128c2.484-.515,5.014-.984,7.52-1.395l.227,1.139c-2.487.408-5,.873-7.463,1.385Zm68.068-1.2c-2.483-.423-5.011-.8-7.516-1.119l.177-1.146c2.524.322,5.073.7,7.574,1.127Zm-53.081-1.259-.169-1.147c2.524-.306,5.09-.563,7.628-.763l.111,1.153c-2.519.2-5.065.455-7.57.758Zm38-.664c-2.511-.215-5.067-.38-7.6-.491l.062-1.156c2.549.112,5.124.279,7.655.5Zm-22.829-.538-.053-1.156c2.343-.089,4.731-.134,7.1-.134h.577l0,1.157h-.573c-2.349,0-4.72.046-7.045.134Z" transform="translate(-293.229 -151)" fill="#e6e6e6"/>
    <path id="Path_379" data-name="Path 379" d="M608.349,685V615.29a3.688,3.688,0,0,1,3.683-3.683H620.4a3.688,3.688,0,0,1,3.683,3.683V685a3.688,3.688,0,0,1-3.683,3.683h-8.364A3.688,3.688,0,0,1,608.349,685Z" transform="translate(-421.723 -381.465)" fill="#393e46"/>
    <path id="Path_380" data-name="Path 380" d="M579.156,685V615.29a3.688,3.688,0,0,1,3.683-3.683H591.2a3.688,3.688,0,0,1,3.683,3.683V685a3.688,3.688,0,0,1-3.683,3.683h-8.364A3.688,3.688,0,0,1,579.156,685Z" transform="translate(-409.073 -381.465)" fill="#393e46"/>
    <rect id="Rectangle_1490" data-name="Rectangle 1490" width="40.665" height="45.054" rx="6" transform="translate(165.887 216.289)" fill="#2f2e41"/>
    <path id="Path_381" data-name="Path 381" d="M459.512,379.408s-17.09,7.939-31.553,13.2c-8.975-20.259-21.9-19.5-21.9-19.5l-7.839,5.4,1.414,8.1-.386,13.236-2.056,6.939,2.95.533,1.667.3.251-.227a17.126,17.126,0,0,0-.5,5.046L475.7,400.869S473.133,388.917,459.512,379.408Z" transform="translate(-330.224 -260.217)" fill="#e6e6e6"/>
    <rect id="Rectangle_1491" data-name="Rectangle 1491" width="15.164" height="76.51" rx="6" transform="matrix(-0.594, -0.804, 0.804, -0.594, 114.385, 225.17)" fill="#00adb5"/>
    <rect id="Rectangle_1492" data-name="Rectangle 1492" width="15.164" height="76.51" rx="6" transform="matrix(0.883, -0.469, 0.469, 0.883, 192.525, 172.266)" fill="#00adb5"/>
    <path id="Path_382" data-name="Path 382" d="M650.187,510.673l-12.066,8a3.6,3.6,0,0,1-4.932-1.232l-13.326-25.11a3.6,3.6,0,0,1,1.745-4.775l8.213-4.358a3.6,3.6,0,0,1,4.932,1.232l17.179,21.47A3.606,3.606,0,0,1,650.187,510.673Z" transform="translate(-426.555 -313.927)" fill="#ccc"/>
    <path id="Path_383" data-name="Path 383" d="M527.846,503.117l7.843,10.415a3.4,3.4,0,0,0,4.806.152l20.727-19.455a3.4,3.4,0,0,0,.152-4.806l-5.724-6.1a3.4,3.4,0,0,0-4.806-.152L528,498.311A3.4,3.4,0,0,0,527.846,503.117Z" transform="translate(-386.441 -313.446)" fill="#ccc"/>
    <rect id="Rectangle_1493" data-name="Rectangle 1493" width="44.803" height="87.539" rx="6" transform="translate(163.818 164.558)" fill="#ccc"/>
    <circle id="Ellipse_24" data-name="Ellipse 24" cx="30.328" cy="30.328" r="30.328" transform="translate(155.669 108.176)" fill="#00adb5"/>
    <path id="Path_384" data-name="Path 384" d="M607.5,422.358c-1.874-.053-4.206-.118-6-1.429a4.608,4.608,0,0,1-1.813-3.442,3.1,3.1,0,0,1,1.054-2.546,4,4,0,0,1,3.784-.545l-1.53-11.179,1.123-.154,1.8,13.142-.937-.43c-1.086-.5-2.579-.753-3.506.031a1.991,1.991,0,0,0-.653,1.64,3.482,3.482,0,0,0,1.349,2.566c1.4,1.021,3.256,1.153,5.364,1.211Z" transform="translate(-417.966 -274.024)" fill="#2f2e41"/>
    <rect id="Rectangle_1494" data-name="Rectangle 1494" width="6.104" height="1.133" transform="translate(173.37 130.798)" fill="#2f2e41"/>
    <rect id="Rectangle_1495" data-name="Rectangle 1495" width="6.104" height="1.133" transform="translate(192.637 130.798)" fill="#2f2e41"/>
    <path id="Path_385" data-name="Path 385" d="M563.56,353.624c-4.916-.561-8.722-5.27-9.141-10.049-.5-5.685,2.813-11.084,7.355-14.275,4.75-3.336,10.668-4.729,16.394-5.036a45.057,45.057,0,0,1,30.8,10.151c4.291,3.564,8.3,8.1,9.816,13.586,1.319,4.762.246,10.156-3.584,13.491a9.054,9.054,0,0,1-6.948,2.139,17.267,17.267,0,0,1-8.087-3.6c-4.617-3.357-8.407-8.033-14.031-9.787-4.124-1.286-9.476-.154-12,3.575a6.788,6.788,0,0,0-1.084,2.844.88.88,0,0,0,.594,1.046.855.855,0,0,0,1.046-.594c.662-4.7,6.438-6.45,10.491-5.378,5.91,1.564,9.877,6.838,14.725,10.188a17.894,17.894,0,0,0,8.575,3.423,10.648,10.648,0,0,0,7.482-2.3c4.142-3.271,5.726-8.9,4.81-13.962-1.061-5.865-5.008-10.892-9.34-14.784a46.721,46.721,0,0,0-31.929-11.8c-5.992.138-12.244,1.375-17.406,4.542-5.007,3.072-8.877,8.211-9.383,14.185a13.392,13.392,0,0,0,7.219,13.062,11.305,11.305,0,0,0,3.622,1.022c1.085.124,1.076-1.577,0-1.7Z" transform="translate(-397.598 -235.454)" fill="#393e46"/>
    <path id="Path_386" data-name="Path 386" d="M400.767,406.589l3.6-1.157c.386-.739-.32-.265.017-.983,9.1-19.421.69-31.335.69-31.335l-6.508,4.481c-.016-.037-.029-.075-.045-.112,0,0-1.156-2.57-2.956-.642,0,0,5.654,13.75-.643,30.841l7.325,3.341,2.827-3.341.064-.321-5.059-.46Z" transform="translate(-329.241 -260.159)" fill="#ccc"/>
    <path id="Path_387" data-name="Path 387" d="M503.327,493.892c-28.913-6.425-55.834,6.875-55.834,6.875l-.073-.066L436.7,491.129l-41.891-68.363,10.216.064c28.4-16.962,68.363-14.649,68.363-14.649C490.605,427.713,503.327,493.892,503.327,493.892Z" transform="translate(-329.192 -280.666)" fill="#393e46"/>
    <path id="Path_388" data-name="Path 388" d="M447.419,511.935,436.7,502.363,394.807,434l10.216.064S445.74,487.841,447.419,511.935Z" transform="translate(-329.192 -292.605)" opacity="0.1"/>
    <ellipse id="Ellipse_25" data-name="Ellipse 25" cx="16.577" cy="10.537" rx="16.577" ry="10.537" transform="translate(100.906 153.695) rotate(-17.052)" fill="#00adb5"/>
    <path id="Path_389" data-name="Path 389" d="M328.266,362.444c-2.309,8.534-10.216,13.819-10.216,13.819s-4.164-8.551-1.856-17.085,10.216-13.819,10.216-13.819S330.575,353.91,328.266,362.444Z" transform="translate(-294.825 -246.262)" fill="#ccc"/>
    <path id="Path_390" data-name="Path 390" d="M300.437,362.444c2.309,8.534,10.216,13.819,10.216,13.819s4.164-8.551,1.856-17.085-10.216-13.819-10.216-13.819S298.128,353.91,300.437,362.444Z" transform="translate(-287.997 -246.262)" fill="#ccc"/>
    <path id="Path_391" data-name="Path 391" d="M294.85,367.159c6.335,6.167,7.108,15.646,7.108,15.646s-9.5-.518-15.832-6.685-7.108-15.646-7.108-15.646S288.515,360.993,294.85,367.159Z" transform="translate(-279.019 -253.347)" fill="#393e46"/>
    <path id="Path_392" data-name="Path 392" d="M326.608,367.159c-6.335,6.167-7.108,15.646-7.108,15.646s9.5-.518,15.832-6.685,7.108-15.646,7.108-15.646S332.943,360.993,326.608,367.159Z" transform="translate(-296.56 -253.347)" fill="#393e46"/>
    <path id="Path_393" data-name="Path 393" d="M889.266,532.444c-2.309,8.534-10.216,13.819-10.216,13.819s-4.164-8.551-1.856-17.085,10.216-13.819,10.216-13.819S891.575,523.91,889.266,532.444Z" transform="translate(-537.917 -329.584)" fill="#ccc"/>
    <path id="Path_394" data-name="Path 394" d="M861.437,532.444c2.309,8.534,10.216,13.819,10.216,13.819s4.164-8.551,1.856-17.085-10.216-13.819-10.216-13.819S859.128,523.91,861.437,532.444Z" transform="translate(-531.089 -329.584)" fill="#ccc"/>
    <path id="Path_395" data-name="Path 395" d="M855.85,537.159c6.335,6.167,7.109,15.646,7.109,15.646s-9.5-.518-15.832-6.685-7.108-15.646-7.108-15.646S849.515,530.992,855.85,537.159Z" transform="translate(-522.11 -336.408)" fill="#393e46"/>
    <path id="Path_396" data-name="Path 396" d="M887.608,537.159c-6.335,6.167-7.108,15.646-7.108,15.646s9.5-.518,15.832-6.685,7.108-15.646,7.108-15.646S893.943,530.992,887.608,537.159Z" transform="translate(-539.651 -336.408)" fill="#393e46"/>
    <rect id="Rectangle_1496" data-name="Rectangle 1496" width="131.47" height="1.133" transform="translate(121.249 306.867)" fill="#3f3d56"/>
  </g>
</svg>
