<svg xmlns="http://www.w3.org/2000/svg" width="344.113" height="275.041" viewBox="0 0 344.113 275.041">
  <g id="undraw_teaching_f-1-cm" transform="translate(0)">
    <rect id="Rectangle_1497" data-name="Rectangle 1497" width="31.205" height="9.434" rx="4.717" transform="translate(70.346 47.171)" fill="#00adb5" opacity="0.1"/>
    <rect id="Rectangle_1498" data-name="Rectangle 1498" width="31.205" height="9.434" rx="4.717" transform="translate(103.003 56.605)" fill="#00adb5" opacity="0.1"/>
    <rect id="Rectangle_1499" data-name="Rectangle 1499" width="31.205" height="9.434" rx="4.717" transform="translate(135.659 66.039)" fill="#00adb5" opacity="0.1"/>
    <rect id="Rectangle_1500" data-name="Rectangle 1500" width="31.205" height="9.434" rx="4.717" transform="translate(70.346 33.019)" fill="#00adb5" opacity="0.1"/>
    <rect id="Rectangle_1501" data-name="Rectangle 1501" width="31.205" height="9.434" rx="4.717" transform="translate(103.003 42.454)" fill="#00adb5" opacity="0.1"/>
    <rect id="Rectangle_1502" data-name="Rectangle 1502" width="31.205" height="9.434" rx="4.717" transform="translate(135.659 51.888)" fill="#00adb5" opacity="0.1"/>
    <rect id="Rectangle_1503" data-name="Rectangle 1503" width="31.205" height="9.434" rx="4.717" transform="translate(171.944 47.171)" fill="#00adb5" opacity="0.1"/>
    <rect id="Rectangle_1504" data-name="Rectangle 1504" width="31.205" height="9.434" rx="4.717" transform="translate(204.601 56.605)" fill="#00adb5" opacity="0.1"/>
    <rect id="Rectangle_1505" data-name="Rectangle 1505" width="31.205" height="9.434" rx="4.717" transform="translate(237.257 66.039)" fill="#00adb5" opacity="0.1"/>
    <rect id="Rectangle_1506" data-name="Rectangle 1506" width="31.205" height="9.434" rx="4.717" transform="translate(171.944 33.019)" fill="#00adb5" opacity="0.1"/>
    <rect id="Rectangle_1507" data-name="Rectangle 1507" width="31.205" height="9.434" rx="4.717" transform="translate(204.601 42.454)" fill="#00adb5" opacity="0.1"/>
    <rect id="Rectangle_1508" data-name="Rectangle 1508" width="31.205" height="9.434" rx="4.717" transform="translate(237.257 51.888)" fill="#00adb5" opacity="0.1"/>
    <rect id="Rectangle_1509" data-name="Rectangle 1509" width="31.205" height="9.434" rx="4.717" transform="translate(70.346 14.151)" fill="#00adb5" opacity="0.1"/>
    <rect id="Rectangle_1510" data-name="Rectangle 1510" width="31.205" height="9.434" rx="4.717" transform="translate(103.003 23.585)" fill="#00adb5" opacity="0.1"/>
    <rect id="Rectangle_1511" data-name="Rectangle 1511" width="31.205" height="9.434" rx="4.717" transform="translate(135.659 33.019)" fill="#00adb5" opacity="0.1"/>
    <rect id="Rectangle_1512" data-name="Rectangle 1512" width="31.205" height="9.434" rx="4.717" transform="translate(70.346)" fill="#00adb5" opacity="0.1"/>
    <rect id="Rectangle_1513" data-name="Rectangle 1513" width="31.205" height="9.434" rx="4.717" transform="translate(103.003 9.434)" fill="#00adb5" opacity="0.1"/>
    <rect id="Rectangle_1514" data-name="Rectangle 1514" width="31.205" height="9.434" rx="4.717" transform="translate(135.659 18.868)" fill="#00adb5" opacity="0.1"/>
    <rect id="Rectangle_1515" data-name="Rectangle 1515" width="31.205" height="9.434" rx="4.717" transform="translate(171.944 14.151)" fill="#00adb5" opacity="0.1"/>
    <rect id="Rectangle_1516" data-name="Rectangle 1516" width="31.205" height="9.434" rx="4.717" transform="translate(204.601 23.585)" fill="#00adb5" opacity="0.1"/>
    <rect id="Rectangle_1517" data-name="Rectangle 1517" width="31.205" height="9.434" rx="4.717" transform="translate(237.257 33.019)" fill="#00adb5" opacity="0.1"/>
    <rect id="Rectangle_1518" data-name="Rectangle 1518" width="31.205" height="9.434" rx="4.717" transform="translate(171.944)" fill="#00adb5" opacity="0.1"/>
    <rect id="Rectangle_1519" data-name="Rectangle 1519" width="31.205" height="9.434" rx="4.717" transform="translate(204.601 9.434)" fill="#00adb5" opacity="0.1"/>
    <rect id="Rectangle_1520" data-name="Rectangle 1520" width="31.205" height="9.434" rx="4.717" transform="translate(237.257 18.868)" fill="#00adb5" opacity="0.1"/>
    <rect id="Rectangle_1521" data-name="Rectangle 1521" width="31.205" height="9.434" rx="4.717" transform="translate(70.346 215.171)" fill="#00adb5" opacity="0.1"/>
    <rect id="Rectangle_1522" data-name="Rectangle 1522" width="31.205" height="9.434" rx="4.717" transform="translate(103.003 224.605)" fill="#00adb5" opacity="0.1"/>
    <rect id="Rectangle_1523" data-name="Rectangle 1523" width="31.205" height="9.434" rx="4.717" transform="translate(135.659 234.039)" fill="#00adb5" opacity="0.1"/>
    <rect id="Rectangle_1524" data-name="Rectangle 1524" width="31.205" height="9.434" rx="4.717" transform="translate(70.346 201.019)" fill="#00adb5" opacity="0.1"/>
    <rect id="Rectangle_1525" data-name="Rectangle 1525" width="31.205" height="9.434" rx="4.717" transform="translate(103.003 210.454)" fill="#00adb5" opacity="0.1"/>
    <rect id="Rectangle_1526" data-name="Rectangle 1526" width="31.205" height="9.434" rx="4.717" transform="translate(135.659 219.888)" fill="#00adb5" opacity="0.1"/>
    <rect id="Rectangle_1527" data-name="Rectangle 1527" width="31.205" height="9.434" rx="4.717" transform="translate(171.944 215.171)" fill="#00adb5" opacity="0.1"/>
    <rect id="Rectangle_1528" data-name="Rectangle 1528" width="31.205" height="9.434" rx="4.717" transform="translate(204.601 224.605)" fill="#00adb5" opacity="0.1"/>
    <rect id="Rectangle_1529" data-name="Rectangle 1529" width="31.205" height="9.434" rx="4.717" transform="translate(237.257 234.039)" fill="#00adb5" opacity="0.1"/>
    <rect id="Rectangle_1530" data-name="Rectangle 1530" width="31.205" height="9.434" rx="4.717" transform="translate(171.944 201.019)" fill="#00adb5" opacity="0.1"/>
    <rect id="Rectangle_1531" data-name="Rectangle 1531" width="31.205" height="9.434" rx="4.717" transform="translate(204.601 210.454)" fill="#00adb5" opacity="0.1"/>
    <rect id="Rectangle_1532" data-name="Rectangle 1532" width="31.205" height="9.434" rx="4.717" transform="translate(237.257 219.888)" fill="#00adb5" opacity="0.1"/>
    <rect id="Rectangle_1533" data-name="Rectangle 1533" width="31.205" height="9.434" rx="4.717" transform="translate(70.346 182.151)" fill="#00adb5" opacity="0.1"/>
    <rect id="Rectangle_1534" data-name="Rectangle 1534" width="31.205" height="9.434" rx="4.717" transform="translate(103.003 191.585)" fill="#00adb5" opacity="0.1"/>
    <rect id="Rectangle_1535" data-name="Rectangle 1535" width="31.205" height="9.434" rx="4.717" transform="translate(135.659 201.019)" fill="#00adb5" opacity="0.1"/>
    <rect id="Rectangle_1536" data-name="Rectangle 1536" width="31.205" height="9.434" rx="4.717" transform="translate(70.346 168)" fill="#00adb5" opacity="0.1"/>
    <rect id="Rectangle_1537" data-name="Rectangle 1537" width="31.205" height="9.434" rx="4.717" transform="translate(103.003 177.434)" fill="#00adb5" opacity="0.1"/>
    <rect id="Rectangle_1538" data-name="Rectangle 1538" width="31.205" height="9.434" rx="4.717" transform="translate(135.659 186.868)" fill="#00adb5" opacity="0.1"/>
    <rect id="Rectangle_1539" data-name="Rectangle 1539" width="31.205" height="9.434" rx="4.717" transform="translate(171.944 182.151)" fill="#00adb5" opacity="0.1"/>
    <rect id="Rectangle_1540" data-name="Rectangle 1540" width="31.205" height="9.434" rx="4.717" transform="translate(204.601 191.585)" fill="#00adb5" opacity="0.1"/>
    <rect id="Rectangle_1541" data-name="Rectangle 1541" width="31.205" height="9.434" rx="4.717" transform="translate(237.257 201.019)" fill="#00adb5" opacity="0.1"/>
    <rect id="Rectangle_1542" data-name="Rectangle 1542" width="31.205" height="9.434" rx="4.717" transform="translate(171.944 168)" fill="#00adb5" opacity="0.1"/>
    <rect id="Rectangle_1543" data-name="Rectangle 1543" width="31.205" height="9.434" rx="4.717" transform="translate(204.601 177.434)" fill="#00adb5" opacity="0.1"/>
    <rect id="Rectangle_1544" data-name="Rectangle 1544" width="31.205" height="9.434" rx="4.717" transform="translate(237.257 186.868)" fill="#00adb5" opacity="0.1"/>
    <ellipse id="Ellipse_26" data-name="Ellipse 26" cx="159.11" cy="13.063" rx="159.11" ry="13.063" transform="translate(15.918 248.916)" fill="#00adb5" opacity="0.1"/>
    <path id="Path_397" data-name="Path 397" d="M156.535,250.349c15,6.5,23.625,19.957,23.625,19.957s-15.708,2.9-30.715-3.6-23.625-19.957-23.625-19.957S141.528,243.847,156.535,250.349Z" transform="translate(-125.82 -182.568)" fill="#00adb5"/>
    <path id="Path_398" data-name="Path 398" d="M329.864,169.248A32.08,32.08,0,0,1,342.408,158a32.325,32.325,0,0,1-4.263,16.285A32,32,0,0,1,325.6,185.508,32.022,32.022,0,0,1,329.864,169.248Z" transform="translate(-253.103 -126.432)" fill="#00adb5"/>
    <path id="Path_399" data-name="Path 399" d="M240.945,170.6c3.32,11.851,12.471,19.652,12.471,19.652s3.77-11.419.45-23.273-12.475-19.652-12.475-19.652S237.621,158.749,240.945,170.6Z" transform="translate(-198.299 -119.634)" fill="#46455b"/>
    <rect id="Rectangle_1545" data-name="Rectangle 1545" width="264.518" height="132.441" rx="7.21" transform="translate(43.132 50.436)" fill="#3f3d56"/>
    <path id="Path_400" data-name="Path 400" d="M118.87,482H383.388v5.367a2.616,2.616,0,0,1-2.616,2.616H121.486a2.616,2.616,0,0,1-2.616-2.616Z" transform="translate(-75.738 -307.106)" opacity="0.1"/>
    <rect id="Rectangle_1546" data-name="Rectangle 1546" width="19.594" height="9.797" rx="2.5" transform="translate(68.895 165.097)" fill="#00adb5"/>
    <rect id="Rectangle_1547" data-name="Rectangle 1547" width="13.425" height="1.451" rx="0.726" transform="translate(93.931 173.443)" fill="#00adb5"/>
    <path id="Path_401" data-name="Path 401" d="M314.07,270.442c9.576,1.767,19.344,0,28.879-1.2l28.981-3.629c1.172-.149,2.877-.849,3.567.584.388.8.127,2.54.156,3.462.076,2.54.069,5.08,0,7.62-.131,4.855-.486,9.7-.94,14.532-.882,9.46-2.13,18.868-2.754,28.364-.319,4.833-.479,9.681-.337,14.514.033,1.154.08,2.308.149,3.458.076,1.288.653,3.2-.751,4.06-.8.493-2.38.468-3.3.613-1.451.229-2.9.41-4.383.559-9.757.976-19.641.57-29.434.512l-29.572-.152-7.214-.04c-.653,0-3.008.392-3.411-.385a7.678,7.678,0,0,1,.363-2.29q.167-1.023.363-2.043c.842-4.771,1.836-9.514,2.838-14.253,2.152-10.16,4.354-20.37,5.24-30.748.439-5.207.149-10.461.686-15.657.25-2.413.548-7.8,3.759-8.012,2.721-.181,5.523,0,8.251,0a.544.544,0,0,0,0-1.089c-2.576,0-5.156-.069-7.732-.018-1.713.033-2.9.439-3.719,2.014-2.086,4.042-1.872,9.434-1.938,13.846a168,168,0,0,1-3.89,31.231c-1.063,5.2-2.21,10.381-3.266,15.584-.5,2.486-.972,4.978-1.408,7.478-.2,1.19-1.23,3.814-.327,4.906s3.683.5,4.927.512l8.658.051,16.59.094c10.719.062,21.474.363,32.188.047,5.116-.152,10.523-.363,15.5-1.586a2.483,2.483,0,0,0,2.257-2.627c.087-2.453-.312-4.982-.363-7.446-.363-21.082,4.59-41.869,4.082-62.958-.033-1.433.508-5.047-1.059-5.914a3.959,3.959,0,0,0-2.359-.091c-1.415.163-2.827.363-4.242.53l-18.378,2.293c-5.875.726-11.745,1.509-17.631,2.177-6.23.726-12.522,1.158-18.73,0-.686-.127-.98.922-.29,1.049Z" transform="translate(-232.059 -194.105)" fill="#00adb5"/>
    <path id="Path_402" data-name="Path 402" d="M319.08,308.573l72.5-3.556c.7-.036.7-1.125,0-1.089l-72.5,3.556C318.383,307.517,318.38,308.606,319.08,308.573Z" transform="translate(-248.622 -219.41)" fill="#00adb5"/>
    <path id="Path_403" data-name="Path 403" d="M380.691,285.841a1.814,1.814,0,0,0,.642,2.928,4.768,4.768,0,0,0,3.092-.171c1.451-.363,2.9-.686,4.394-.951a59.924,59.924,0,0,1,9.83-.914c1.5-.018,2.993.051,4.5.116a4.856,4.856,0,0,0,3.182-.544,2.055,2.055,0,0,0,.363-3.208c-1.451-1.324-4.579-.555-6.256-.417a140.277,140.277,0,0,0-18.092,2.7c-.682.145-.4,1.2.29,1.049q5.9-1.274,11.9-2.046,2.946-.363,5.9-.613c.929-.076,1.858-.145,2.787-.2.363-.022.747-.062,1.118-.051,1.15.025,1.284-.181.6,1.208-.613,1.23-.417,1.089-1.48,1.049-.45,0-.9-.051-1.35-.073q-1.382-.058-2.765-.062-2.943,0-5.871.283c-1.655.16-3.306.385-4.942.675-1.023.181-2.039.392-3.052.624-.446.105-.9.214-1.343.327-.214.058-.432.109-.646.163q-1.19.414-2.028-1.089c.486-.5-.279-1.277-.769-.769Z" transform="translate(-287.896 -205.651)" fill="#00adb5"/>
    <path id="Path_404" data-name="Path 404" d="M387.4,333.208c-5.25-.2-10.922,1.216-14.38,5.443-2.707,3.306-4.249,8.977-1.382,12.7,3.081,3.991,9.837,3.287,13.912,1.586,4.311-1.814,9.028-5.555,10.323-10.236,1.615-5.846-3.628-10.265-9.089-10.33a.545.545,0,0,0,0,1.089c3.113.036,6.168,1.372,7.62,4.271,1.52,3.055.21,6.263-1.814,8.708-3.244,3.893-8.317,6.829-13.484,6.745-3.1-.047-6.531-1.11-7.493-4.383a10.13,10.13,0,0,1,1.19-7.9c2.983-5.08,9.053-6.8,14.619-6.582.7.025.7-1.063,0-1.089Z" transform="translate(-281.467 -237.532)" fill="#00adb5"/>
    <path id="Path_405" data-name="Path 405" d="M400.062,350.517a1.415,1.415,0,0,0-1.9,1.451c.109,1.415,1.669,1.814,2.841,1.731,1.012-.087,2.2-.461,1.84-1.727a1.625,1.625,0,0,0-.885-1.023,2.05,2.05,0,0,0-1.023-.127c-.134,0-1.364.45-.842-.091l-.856-.112a.893.893,0,0,1,.261.726.548.548,0,0,0,.816.468.726.726,0,0,1,.983.849.548.548,0,0,0,.994.421c.363-.653.8-1.952.258-2.634a1.161,1.161,0,0,0-1.5-.054,5.251,5.251,0,0,0-.747.642c-.439.388-.726.57-.562-.174a4.7,4.7,0,0,1,2.743-2.972l-.8-.613a11.473,11.473,0,0,1-2.2,4.3l.929.385a2.424,2.424,0,0,1,1.48-2.362h-.533l.283.464c-.105.686.943.98,1.049.287.138-.9-.428-2.061-1.477-1.622a3.417,3.417,0,0,0-1.876,3.233c0,.435.617.773.933.388a12.793,12.793,0,0,0,2.471-4.786.552.552,0,0,0-.8-.613,6.085,6.085,0,0,0-2.642,2.3c-.443.726-1,1.858-.548,2.692a1.154,1.154,0,0,0,1.578.446,4.245,4.245,0,0,0,.911-.726c.134-.12.283-.327.461-.363.16-.109.152-.047-.025.192a1.978,1.978,0,0,1-.316,1.06l.994.417a1.814,1.814,0,0,0-2.58-2.079l.82.472a1.977,1.977,0,0,0-.41-1.281.552.552,0,0,0-.853-.112,1.424,1.424,0,0,0,.036,2.108c.519.4.773,0,1.343-.091,1.934-.25.806.62.123.65a2.573,2.573,0,0,1-.911-.065q-1.136-.385-.142-.991c.65.265.929-.787.29-1.049Z" transform="translate(-299.338 -246.778)" fill="#00adb5"/>
    <path id="Path_406" data-name="Path 406" d="M391.5,361.2c.446,1.451-1.4,1.93-2.271,2.431a5.058,5.058,0,0,0-1.571,1.375,10.506,10.506,0,0,0-1.557,4.256c-.138.686.911.976,1.052.29a12.337,12.337,0,0,1,.918-3.131,5.529,5.529,0,0,1,2.808-2.4c1.219-.668,2.1-1.7,1.669-3.11C392.343,360.246,391.29,360.532,391.5,361.2Z" transform="translate(-291.648 -255.476)" fill="#00adb5"/>
    <path id="Path_407" data-name="Path 407" d="M395.81,360.37a1.052,1.052,0,0,0-.907,1.089c0,.432.287.708.483,1.052a8.306,8.306,0,0,1,1.052,2.29,4.94,4.94,0,0,1-.062,2.9c-.751,1.346-2.108,1.089-3.266,1.089-1.089,0-1.93.363-1.894-1.154a4.827,4.827,0,0,1,1.089-2.388l-.994-.131a18.966,18.966,0,0,1,.33,3.36c0,.5.773.784,1.012.272a21.015,21.015,0,0,0,1.382-3.824l-1.07-.145.189,2.758a.548.548,0,0,0,1.012.276,1.234,1.234,0,0,0,.272-.49c.036-.171-.3-1.321-.432-.911l1.067.145.076-2.62-1.089.145a5.421,5.421,0,0,1,.2,2.286c-.069.606.951.744,1.089.145l.682-3.52-.994.127a2.4,2.4,0,0,1,.185,1.567c-.08.7,1.009.689,1.089,0a3.825,3.825,0,0,0-.334-2.115.548.548,0,0,0-.994.131l-.686,3.52,1.07.145a5.936,5.936,0,0,0-.243-2.573.544.544,0,0,0-1.067.141l-.076,2.62a.547.547,0,0,0,1.07.145l.058-.178a.551.551,0,0,0-.138-.53c-1.128-1.226-1.357.726-1.749,1.266l1.016.276-.189-2.758a.548.548,0,0,0-1.07-.145,19.507,19.507,0,0,1-1.27,3.567l1.016.276a20.514,20.514,0,0,0-.363-3.65c-.094-.5-.751-.479-.994-.131-.726,1.045-1.981,3.327-1.012,4.579.845,1.089,3.505.668,4.641.6,1.792-.1,2.442-1.237,2.638-2.928a7.171,7.171,0,0,0-.134-2.424c-.1-.428-1.089-3.142-1.386-3.088.689-.127.4-1.179-.29-1.052Z" transform="translate(-294.147 -255.372)" fill="#00adb5"/>
    <path id="Path_408" data-name="Path 408" d="M394.575,364.478,391.6,368.4l.94.548,2.177-3.15-.994-.421-1.085,4.14a.548.548,0,0,0,.994.421,19.123,19.123,0,0,1,1.658-2.333l-.907-.53a5.925,5.925,0,0,1-1.368,2.515l.911.53a4.865,4.865,0,0,1,.4-1.451c.279-.628-.606-1.183-.94-.552a12.769,12.769,0,0,1-1.049,1.647l.994.131.221-1.034-.994-.131.16.907a.548.548,0,0,0,.911.239,10.835,10.835,0,0,0,2.177-3.284h-.936a4.887,4.887,0,0,1,.512,1.451c.131.653,1,.41,1.067-.145a29.5,29.5,0,0,0,.239-3.665H395.6v2.282c0,.591.969.766,1.07.145a4.159,4.159,0,0,1,.533-1.56h-.954a2.42,2.42,0,0,1,.363,1.234.544.544,0,1,0,1.089,0l.138-.726h-1.049c.105.642.5,4.26-.914,3.835-.24-.058-.308-.044-.207.04l.323-.689.758-1.607-1.016-.276a3.982,3.982,0,0,1-.316,2.453,1.88,1.88,0,0,1-2.05.421,3.63,3.63,0,0,1-.947-.994l-.744.726c.6.439,1.578,1.517,2.355,1.578.591.047,1.089-.443,1.477-.835a6.324,6.324,0,0,0,1.774-4.655.544.544,0,1,0-1.089,0v1.241a.544.544,0,1,0,1.089,0V363.8a.544.544,0,1,0-1.089,0A13.063,13.063,0,0,1,396,365.98l1.07.145a25.058,25.058,0,0,1-.12-2.609.544.544,0,0,0-1.067-.145c-.163.693-.363,1.375-.555,2.054l.994-.131-.076-.29c-.051-.693-1.139-.7-1.089,0a1.992,1.992,0,0,0,.225.842.55.55,0,0,0,.994-.131c.207-.682.392-1.364.555-2.054l-1.07-.145a25.076,25.076,0,0,0,.12,2.609c.054.559.954.8,1.067.145a15,15,0,0,0,.229-2.482h-1.089v3.044h1.089v-1.241h-1.089a5.232,5.232,0,0,1-1.324,3.73,4.459,4.459,0,0,1-.457.45c-.258.247-.493.21-.7-.112a9.064,9.064,0,0,1-1.5-1.089c-.45-.323-1.067.316-.747.744.835,1.11,2.079,2.348,3.628,1.814,1.629-.577,1.851-2.783,1.727-4.234-.04-.483-.762-.809-1.012-.272-.363.766-.726,1.528-1.089,2.3a2.029,2.029,0,0,0-.327.958c.12.816,1.11.682,1.72.635,2.362-.178,1.988-3.527,1.716-5.211-.091-.559-.9-.472-1.049,0a3.206,3.206,0,0,0-.178,1.031h1.089a4.315,4.315,0,0,0-.512-1.782.548.548,0,0,0-.94,0,5.291,5.291,0,0,0-.646,1.814l1.089.145v-2.282a.544.544,0,0,0-1.089,0,29.514,29.514,0,0,1-.239,3.665l1.07-.145a6.23,6.23,0,0,0-.62-1.7.548.548,0,0,0-.94,0,9.927,9.927,0,0,1-2.007,3.062l.911.239-.16-.907c-.083-.483-.766-.5-.994-.131a2.388,2.388,0,0,0-.33,1.872c.091.515.744.461.994.131a12.735,12.735,0,0,0,1.049-1.644l-.94-.552a6.189,6.189,0,0,0-.508,1.709c-.065.479.5.98.911.53a7.257,7.257,0,0,0,1.647-3c.134-.493-.548-.962-.911-.53a20.774,20.774,0,0,0-1.814,2.54l.994.421,1.107-4.126a.548.548,0,0,0-.994-.421l-2.177,3.153c-.406.584.526,1.089.94.548l2.961-3.919c.421-.559-.523-1.089-.94-.552Z" transform="translate(-295.019 -257.034)" fill="#00adb5"/>
    <path id="Path_409" data-name="Path 409" d="M526.328,335.957c4.354-2.663,7.816-6.637,11.662-9.96,4.173-3.6,8.552-6.959,13.063-10.138,8.759-6.168,17.957-11.687,27.148-17.192a.544.544,0,0,0-.548-.94c-9.191,5.5-18.393,11.013-27.152,17.192-4.133,2.9-8.168,5.98-12.036,9.245-4.209,3.556-7.957,7.983-12.7,10.853-.6.363-.051,1.306.548.94Z" transform="translate(-380.48 -215.417)" fill="#00adb5"/>
    <path id="Path_410" data-name="Path 410" d="M683.872,253.845c-4.717.479-9.8,1.68-12.7,5.806-2.507,3.549-2.453,9.739-.1,13.382,2.674,4.14,8.139,4.289,12.384,2.95s8.64-3.687,8.6-8.759a21.169,21.169,0,0,0-2.09-8.023c-.936-2.13-2.594-3.991-5.105-3.755-.693.065-.7,1.154,0,1.089,3.364-.312,4.445,3.683,5.243,6.2.726,2.355,1.4,5.142.258,7.482s-3.886,3.534-6.234,4.39a13.038,13.038,0,0,1-7.983.726c-5.254-1.47-6.706-8.128-5.192-12.852,1.742-5.443,7.91-7.043,12.936-7.551.689-.069.7-1.157,0-1.089Z" transform="translate(-472.098 -187.497)" fill="#00adb5"/>
    <path id="Path_411" data-name="Path 411" d="M703.872,369.845c-4.717.479-9.8,1.68-12.7,5.806-2.507,3.549-2.453,9.739-.1,13.382,2.674,4.14,8.139,4.289,12.384,2.95s8.639-3.687,8.6-8.759a21.169,21.169,0,0,0-2.09-8.023c-.936-2.13-2.594-3.991-5.105-3.756-.693.065-.7,1.154,0,1.089,3.364-.312,4.445,3.683,5.243,6.2.726,2.355,1.4,5.142.258,7.482s-3.886,3.534-6.234,4.391a13.039,13.039,0,0,1-7.983.726c-5.254-1.47-6.705-8.128-5.192-12.852,1.742-5.443,7.91-7.043,12.936-7.551.689-.069.7-1.158,0-1.089Z" transform="translate(-484.841 -261.406)" fill="#00adb5"/>
    <path id="Path_412" data-name="Path 412" d="M689.619,250.471l3.436,3.919a.548.548,0,0,0,.907-.243c.726-1.909.588-3.886.758-5.893a19.4,19.4,0,0,1,1.542-6.012,20.294,20.294,0,0,1,8.121-9.307c.6-.363.051-1.306-.548-.94a21.307,21.307,0,0,0-8.211,9.02,20.85,20.85,0,0,0-1.814,5.758c-.363,2.355-.033,4.822-.9,7.083l.911-.243L690.4,249.7c-.464-.526-1.23.247-.769.769Z" transform="translate(-484.96 -173.524)" fill="#00adb5"/>
    <path id="Path_413" data-name="Path 413" d="M531.675,412.019q28.074-.856,56.162-.363a.545.545,0,0,0,0-1.089q-28.081-.5-56.162.363C530.975,410.952,530.971,412.04,531.675,412.019Z" transform="translate(-384.075 -287.238)" fill="#00adb5"/>
    <path id="Path_414" data-name="Path 414" d="M697.551,383.4a112.454,112.454,0,0,1,18.386,9.238c.6.363,1.143-.57.548-.94a113.651,113.651,0,0,0-18.629-9.347c-.649-.258-.932.795-.287,1.049Z" transform="translate(-489.876 -269.35)" fill="#00adb5"/>
    <path id="Path_415" data-name="Path 415" d="M711.44,371.4a44.449,44.449,0,0,0-10.671,27.043c-.029.7,1.06.7,1.089,0a43.23,43.23,0,0,1,10.352-26.274c.454-.53-.312-1.3-.769-.769Z" transform="translate(-492.148 -262.288)" fill="#00adb5"/>
    <path id="Path_416" data-name="Path 416" d="M329.282,400.932l40.556-.53,4.663-.062c.838,0,1.676-.029,2.515-.033a2,2,0,0,1,1.952,2.177c-.054,2.54-1.651,2.449-3.741,2.54l-5.04.229-20.523.9c-3.676.163-7.355.363-11.031.49-3.316.1-9.623-.98-8.15-5.806.2-.671-.845-.958-1.052-.29a5.348,5.348,0,0,0,2.627,6.027c2.935,1.763,6.8,1.165,10.044,1.02l25.2-1.143,6.118-.272c1.568-.073,3.748.247,5.189-.483,1.691-.853,1.988-4.238.922-5.664a2.523,2.523,0,0,0-2.177-.824c-2.257-.087-4.554.062-6.814.091l-12.562.167-28.705.363a.545.545,0,0,0,0,1.089Z" transform="translate(-255.112 -280.103)" fill="#00adb5"/>
    <g id="Michel" transform="translate(232.929 81.504)">
      <path id="Path_417" data-name="Path 417" d="M772.859,758c-.914.573-1.959.9-2.9,1.4a3.972,3.972,0,0,0-2.13,2.308,1.452,1.452,0,0,0,.047.987,1.916,1.916,0,0,0,1.016.806,15.418,15.418,0,0,0,12.2.138,16.045,16.045,0,0,1,2.1-.834,13.681,13.681,0,0,1,2.7-.276,20.725,20.725,0,0,0,2.834-.363,2.492,2.492,0,0,0,1.284-.533,2.384,2.384,0,0,0,.577-1.386,11.412,11.412,0,0,0-1.814-8.084,2.731,2.731,0,0,0-.791-.838,3.052,3.052,0,0,0-1.259-.337c-1.814-.221-3.716-.628-5.548-.671-1.314-.029-1.974.6-2.9,1.5C776.346,753.736,775.225,756.527,772.859,758Z" transform="translate(-767.762 -585.33)" fill="#323444"/>
      <path id="Path_418" data-name="Path 418" d="M855.125,757.431a8.3,8.3,0,0,0,1.292,5.08,6.71,6.71,0,0,0,1.763,1.542,7.944,7.944,0,0,0,7.7.755,2.286,2.286,0,0,0,.958-.805,2.745,2.745,0,0,0-.033-2.115l-3.476-12.047c-2.246.345-5.548.588-7.544,1.727C854.337,752.391,855.125,755.842,855.125,757.431Z" transform="translate(-823.289 -585.026)" fill="#323444"/>
      <path id="Path_419" data-name="Path 419" d="M773.069,560.58c-.21.664-.972.972-1.39,1.531a2.906,2.906,0,0,0-.261,2.366,6.255,6.255,0,0,0,1.593,3.139,3.763,3.763,0,0,0,3.266,1.11,2.721,2.721,0,0,0,2.217-2.442,4.623,4.623,0,0,0-.341-1.571l-2.475-7.155a.271.271,0,0,0-.446-.2c-.584.276-1.756.566-2.1,1.172S773.316,559.924,773.069,560.58Z" transform="translate(-770.011 -462.354)" fill="#fbb3b2"/>
      <path id="Path_420" data-name="Path 420" d="M773,554.934a11.732,11.732,0,0,0,2.54-1.02,2.621,2.621,0,0,1,2.616.1c.2.167.4.4.664.392a25.981,25.981,0,0,0-1.626-5.167.4.4,0,0,0-.142-.2.411.411,0,0,0-.308,0l-2.442.639c-.9.236-1.009.163-.94,1.052C773.381,551.124,773.584,554.934,773,554.934Z" transform="translate(-771.099 -457.066)" fill="#323444"/>
      <path id="Path_421" data-name="Path 421" d="M769.7,422.688a3.439,3.439,0,0,0-.363,1.912,65.012,65.012,0,0,0,.508,9.619c.112.762.254,1.524.327,2.293a26.451,26.451,0,0,1,.051,3.218l-.363,13.97c-.044,1.709-.131,3.545-1.187,4.888a2.337,2.337,0,0,0-.424,1.549c.276,3.505.856,6.981,1.433,10.446a6.455,6.455,0,0,1,5.857.279,64.466,64.466,0,0,0,3.008-17.78,70.585,70.585,0,0,1,.414-8.9,56.6,56.6,0,0,0-.109-14.982,8.278,8.278,0,0,0-1.564-4.416,6.7,6.7,0,0,0-3.628-2.09C772.313,422.347,771.112,422.71,769.7,422.688Z" transform="translate(-768.065 -376.49)" fill="#5b5583"/>
      <path id="Path_422" data-name="Path 422" d="M769.7,422.688a3.439,3.439,0,0,0-.363,1.912,65.012,65.012,0,0,0,.508,9.619c.112.762.254,1.524.327,2.293a26.451,26.451,0,0,1,.051,3.218l-.363,13.97c-.044,1.709-.131,3.545-1.187,4.888a2.337,2.337,0,0,0-.424,1.549c.276,3.505.856,6.981,1.433,10.446a6.455,6.455,0,0,1,5.857.279,64.466,64.466,0,0,0,3.008-17.78,70.585,70.585,0,0,1,.414-8.9,56.6,56.6,0,0,0-.109-14.982,8.278,8.278,0,0,0-1.564-4.416,6.7,6.7,0,0,0-3.628-2.09C772.313,422.347,771.112,422.71,769.7,422.688Z" transform="translate(-768.065 -376.49)" opacity="0.1"/>
      <path id="Path_423" data-name="Path 423" d="M782.4,526.008a64.083,64.083,0,0,0,3.817,37.1,10.062,10.062,0,0,1,.885,2.743c.2,1.778-.62,3.487-1.089,5.207-1.089,3.912-.461,8.077.236,12.079q.435,2.5.9,5c.3,1.626.591,3.393-.163,4.866.649,2.707,1.034,5.388,1.684,8.1a1.538,1.538,0,0,1,.062.664,1.956,1.956,0,0,1-.664.889,3.97,3.97,0,0,0-1.012,3.8c1.658-1.19,3.97-.773,5.864,0s3.759,1.814,5.806,1.814c-.3-2.4-.584-4.924.3-7.177.515-1.306,1.422-2.54,1.4-3.937-.025-1.252-.791-2.369-.976-3.607a9.132,9.132,0,0,1,.087-2.308c.486-4.441-.065-8.926-.617-13.36a7.983,7.983,0,0,0-.61-2.54,3.75,3.75,0,0,1-.635-1.607c0-.679.548-1.23.751-1.876.363-1.19-.3-2.808.7-3.545,2.649-1.945,1.633-6.589,1.575-9.873q-.069-4.249-.363-8.491a36.168,36.168,0,0,1,2,14.637,10.477,10.477,0,0,0,.3,4.837c.486,1.154,1.451,2.1,1.713,3.327a13.926,13.926,0,0,1,.083,2.3,2.374,2.374,0,0,0,.962,2c.051,3.5.363,7.239.417,10.737a26.481,26.481,0,0,0,.435,5.334,6.8,6.8,0,0,1,.268,1.72,7.188,7.188,0,0,1-.573,2.115,12.13,12.13,0,0,0,1.814,11.194,5.41,5.41,0,0,1,4.383-2.453,15.9,15.9,0,0,1,5.149.755,10.084,10.084,0,0,1,1.2-6.132,5.015,5.015,0,0,0,.635-1.364,6.044,6.044,0,0,0-.508-2.75,13.823,13.823,0,0,1-.167-4.532,71.716,71.716,0,0,0-.671-15.211,12.887,12.887,0,0,0-.693-2.9c-.131-.334-.29-.653-.4-.991a7.811,7.811,0,0,1-.29-1.858l-.417-5.806c-.294-4.068,1.041-8.084,1.974-12.054.417-1.778.871-3.552,1.15-5.359.381-2.46.443-4.975,1-7.4.5-2.177,1.4-4.3,1.593-6.531.29-3.458-1.147-6.8-2.54-9.971-.581-1.306-2.776-1.176-4.187-1.408-10.011-1.644-20.556-1.655-30,2.05A7.465,7.465,0,0,0,782.4,526.008Z" transform="translate(-776.331 -439.298)" fill="#3c354c"/>
      <path id="Path_424" data-name="Path 424" d="M801.777,351.844l1.11,4.318a11.538,11.538,0,0,1,.5,3.052,2.253,2.253,0,0,1-.243,1.089,2.593,2.593,0,0,1-.689.7c-.758.577-1.284,1.923-2.152,2.322.446.777,1.063.272,1.869.66a20.285,20.285,0,0,0,4.256,2.021,9.494,9.494,0,0,0,4.416-.363,15.249,15.249,0,0,0,5.718-2.66c1.644-1.339,2.58-2.522,2.573-4.637-1.814.214-3.429-1.618-4.231-3.266a8.87,8.87,0,0,1-.61-1.956l-.972-4.278a20.964,20.964,0,0,0-2.935,1.386,10.658,10.658,0,0,1-3.335.483,35.922,35.922,0,0,0-5.936.769c-.269.054-.606.225-.541.486" transform="translate(-788.494 -329.536)" fill="#fbb3b2"/>
      <path id="Path_425" data-name="Path 425" d="M801.777,351.844l1.11,4.318a11.538,11.538,0,0,1,.5,3.052,2.253,2.253,0,0,1-.243,1.089,2.593,2.593,0,0,1-.689.7c-.758.577-1.284,1.923-2.152,2.322.446.777,1.063.272,1.869.66a20.285,20.285,0,0,0,4.256,2.021,9.494,9.494,0,0,0,4.416-.363,15.249,15.249,0,0,0,5.718-2.66c1.644-1.339,2.58-2.522,2.573-4.637-1.814.214-3.429-1.618-4.231-3.266a8.87,8.87,0,0,1-.61-1.956l-.972-4.278a20.964,20.964,0,0,0-2.935,1.386,10.658,10.658,0,0,1-3.335.483,35.922,35.922,0,0,0-5.936.769c-.269.054-.606.225-.541.486" transform="translate(-788.494 -329.536)" opacity="0.1"/>
      <circle id="Ellipse_27" data-name="Ellipse 27" cx="9.608" cy="9.608" r="9.608" transform="translate(8.443 5.471)" fill="#fbb3b2"/>
      <path id="Path_426" data-name="Path 426" d="M805.208,368.852a8.711,8.711,0,0,1,2.177-2.9c1.353-1.187,3.2-2.148,3.523-3.919l2.932,3.414a1.578,1.578,0,0,1,.363.559,1.408,1.408,0,0,1-.276,1.128,11.749,11.749,0,0,1-2.95,2.823,89.577,89.577,0,0,0-7.108,6.27.726.726,0,0,1-.381.232.686.686,0,0,1-.4-.112,16.506,16.506,0,0,1-5.069-4.122c-.105-.127-.236-.272-.406-.261a.522.522,0,0,0-.272.142c-.976.8-2.043,1.753-3.295,1.629a7.8,7.8,0,0,0,2.881-5.08,9.6,9.6,0,0,1,.414-1.985,2.072,2.072,0,0,1,1.415-1.343,3.183,3.183,0,0,0,.813,3.9,8.012,8.012,0,0,0,3.6,1.745C804.406,371.2,804.769,369.8,805.208,368.852Z" transform="translate(-784.511 -337.934)" fill="#323444"/>
      <path id="Path_427" data-name="Path 427" d="M782.418,525.007c1.368.337,2.663.911,3.991,1.335a19.077,19.077,0,0,0,7.493.787,4.046,4.046,0,0,0,2.177-.693c.171-.138.327-.3.508-.428a3.554,3.554,0,0,1,.976-.4c3.327-1.041,6.114-3.287,8.817-5.486.087-.073.185-.163.178-.279a.362.362,0,0,0-.109-.207L805.028,518a58.806,58.806,0,0,1-11.336.3,16.464,16.464,0,0,0-2.33.062c-.747.087-1.484.276-2.221.435-2.8.61-5.657.842-8.491,1.241a1.31,1.31,0,0,0-.562.174,1.266,1.266,0,0,0-.3.334l-.994,1.4a4.395,4.395,0,0,0-.835,1.6c-.232,1.089.254,1.451,1.179,1.31A8.614,8.614,0,0,1,782.418,525.007Z" transform="translate(-774.222 -437.31)" fill="#323444"/>
      <path id="Path_428" data-name="Path 428" d="M789.02,380.614a17.673,17.673,0,0,0-3.741-2.921,5.3,5.3,0,0,0-1.814-.726,2.265,2.265,0,0,0-1.858.457c-.323.287-.526.686-.838.987a4.17,4.17,0,0,1-1.328.751,23.557,23.557,0,0,0-4.666,2.66,10.7,10.7,0,0,0-2.115,1.952c-1.644,2.1-1.89,4.967-1.847,7.638.033,1.858,1.814,3.237,3.041,4.626a34.081,34.081,0,0,1,3.113,4.354,5.928,5.928,0,0,1,1.266,3.422c-.069,1.02-.664,1.978-.57,2.993.033.363.149.7.181,1.049a11.793,11.793,0,0,1-.294,2.177,27.678,27.678,0,0,0,.254,3.081,9.792,9.792,0,0,1-.269,2.1c-.7,3.316-1.571,6.651-1.393,10.036l-2.01.363a1.7,1.7,0,0,1-.388,2.71c3.139,1.049,6.531.519,9.859.515,2.754,0,5.5.363,8.248.312a14.255,14.255,0,0,0,7.856-2.1c.617-.421,1.183-.914,1.832-1.281a9.039,9.039,0,0,1,2.776-.907,27.544,27.544,0,0,1,5.443-.486,4.19,4.19,0,0,0,2.576-.5,3.682,3.682,0,0,0,1.089-2.649c.105-1.03.171-2.065.189-3.1a13.367,13.367,0,0,0-.127-2.409,15.781,15.781,0,0,0-.424-1.727l-1.368-4.819c-.566-1.988.221-4.169.388-6.23a1.562,1.562,0,0,0-.327-1.364c-.134-.112-.319-.189-.363-.363a.621.621,0,0,1,.087-.486,26.869,26.869,0,0,1,2.808-4.042,82.6,82.6,0,0,0,4.645-7.137,22.965,22.965,0,0,0-6.147-13.745,6.651,6.651,0,0,0-2.573-1.9,7.622,7.622,0,0,0-2.047-.33c-2.845-.192-5.806-.363-8.284-1.792a1.575,1.575,0,0,0-.591-.25c-.548-.062-.947.479-1.3.907a15.614,15.614,0,0,1-3.444,2.515A24.416,24.416,0,0,0,789.02,380.614Z" transform="translate(-769.702 -343.984)" fill="#5b5583"/>
      <path id="Path_429" data-name="Path 429" d="M879.261,418.017a27.242,27.242,0,0,1,.7,5.577,21.72,21.72,0,0,0,.591,3.342,5.334,5.334,0,0,0,.689,1.7,7.491,7.491,0,0,1,1,1.408,3.4,3.4,0,0,1,.149,1.132l.044,2.5a9,9,0,0,1-.591,3.9l-1.564,4.757a29.154,29.154,0,0,1-3.237,7.435,2.144,2.144,0,0,1-.933.874,4.528,4.528,0,0,1-.94.145,2.417,2.417,0,0,0-1.992,2.348,5.511,5.511,0,0,0-1.339-1.368l-3.182-2.54a13.6,13.6,0,0,0-3.545-2.3,9.612,9.612,0,0,0,6.684-8.077,3.627,3.627,0,0,1,.363-1.589c.265-.428.755-.755.791-1.259.043-.635-.675-1.114-.675-1.749,0-.421.312-.769.45-1.165a2.925,2.925,0,0,0,0-1.491l-.439-2.438a1.862,1.862,0,0,0-.218-.7,4.505,4.505,0,0,0-.544-.573c-.755-.845-.421-2.177,0-3.218a30.762,30.762,0,0,1,3.708-6.506,22.243,22.243,0,0,0,1.477-2.112c.385-.668.472-1.593.878-2.177C878.107,415.252,878.815,416.605,879.261,418.017Z" transform="translate(-829.787 -370.97)" fill="#5b5583"/>
      <path id="Path_430" data-name="Path 430" d="M861.187,504.8a1.749,1.749,0,0,0-.414.435,3.669,3.669,0,0,1-1.644,1.172c.363.261.693.519,1.034.784a45.318,45.318,0,0,1,6.894,6.593c.229-.816,1.6-.758,1.93-1.539a1.506,1.506,0,0,0,.073-.7,21.255,21.255,0,0,0-.522-3.628,4.106,4.106,0,0,0-.726-1.7,4.355,4.355,0,0,0-2.054-1.161C864.616,504.658,862.348,504.1,861.187,504.8Z" transform="translate(-825.977 -428.685)" fill="#323444"/>
      <path id="Path_431" data-name="Path 431" d="M842,511.2a19.1,19.1,0,0,1-3.266,2.366,12.3,12.3,0,0,0-2.6,1.147,2.585,2.585,0,0,0,2.467,1.335,5.864,5.864,0,0,0,2.761-1.012c.65-.4,1.412-.864,2.119-.584.109.552-.363,1.07-.363,1.629a1.642,1.642,0,0,0,.922,1.259c2.177,1.4,4.978,1.288,7.573,1.125a.684.684,0,0,0,.417-.123.658.658,0,0,0,.156-.479c.033-.573.047-1.143.051-1.716a2.46,2.46,0,0,0-1.052-2.424,29.611,29.611,0,0,0-4.536-3.211C845.049,509.587,843.431,510.135,842,511.2Z" transform="translate(-811.323 -432.239)" fill="#fbb3b2"/>
      <path id="Path_432" data-name="Path 432" d="M822.183,326.066a2.52,2.52,0,1,0,3.211,2.119A2.737,2.737,0,0,0,822.183,326.066Zm.548,4.557a2.133,2.133,0,1,1,2.217-2.384A2.323,2.323,0,0,1,822.731,330.624Z" transform="translate(-800.757 -315.004)" fill="#3c354c"/>
      <path id="Path_433" data-name="Path 433" d="M800.543,328.666a2.52,2.52,0,1,0,3.211,2.115A2.736,2.736,0,0,0,800.543,328.666Zm.548,4.554a2.133,2.133,0,1,1,2.217-2.384,2.317,2.317,0,0,1-2.217,2.384Z" transform="translate(-786.97 -316.66)" fill="#3c354c"/>
      <path id="Path_434" data-name="Path 434" d="M663.025,259.64l3.5.747-.345.922-3.3-.969Z" transform="translate(-655.283 -246.933)" fill="#3c354c"/>
      <path id="Path_435" data-name="Path 435" d="M711.4,253.18l-3.229,1.557.555.813,2.979-1.724Z" transform="translate(-684.139 -242.817)" fill="#3c354c"/>
      <path id="Path_436" data-name="Path 436" d="M687.31,260.544l2.456-.294-.127.61-2.108.142Z" transform="translate(-670.848 -247.322)" fill="#3c354c"/>
      <path id="Path_437" data-name="Path 437" d="M789.526,308.019a3.9,3.9,0,0,0,.363-1.586,3.39,3.39,0,0,1,.167-.965,2.7,2.7,0,0,1,.791-1.012,7.318,7.318,0,0,1,4.354-1.52,10.066,10.066,0,0,1,5.036,1.089,3.918,3.918,0,0,1,1.252.929c.508.62.617,1.422,1.128,2.036a2.964,2.964,0,0,0,2.779.871,14.455,14.455,0,0,0,.036-1.945,9.408,9.408,0,0,1,.577-1.611,3.96,3.96,0,0,0-1.948-4.572,7.52,7.52,0,0,1-1.734-1.089,8.205,8.205,0,0,1-.853-1.488,3.963,3.963,0,0,0-4.5-1.3c-.5.189-.943.475-1.451.679a11.964,11.964,0,0,1-3.055.588,9.357,9.357,0,0,0-2.961.776,3.316,3.316,0,0,0-1.854,2c-.1.392-.076.8-.174,1.187-.5,1.97-3.734,2.928-3.915,4.938a2.882,2.882,0,0,0,.824,2.014c.341.4,1.158,1.48,1.734,1.636s1.016-.392,1.568-.581C788.564,308.821,789.09,308.763,789.526,308.019Z" transform="translate(-777.828 -295.621)" fill="#cbceda"/>
    </g>
    <path id="Path_438" data-name="Path 438" d="M912.81,682c0,18.23,11.437,32.983,25.57,32.983" transform="translate(-627.25 -460.298)" fill="#46455b"/>
    <path id="Path_439" data-name="Path 439" d="M983.28,714.343c0-18.436,12.765-33.353,28.538-33.353" transform="translate(-672.15 -459.655)" fill="#00adb5"/>
    <path id="Path_440" data-name="Path 440" d="M938.35,686.56c0,17.319,7.293,31.332,16.3,31.332" transform="translate(-643.523 -463.203)" fill="#00adb5"/>
    <path id="Path_441" data-name="Path 441" d="M983.28,698.07c0-23.556,14.754-42.62,32.983-42.62" transform="translate(-672.15 -443.382)" fill="#46455b"/>
    <ellipse id="Ellipse_28" data-name="Ellipse 28" cx="6.357" cy="1.074" rx="6.357" ry="1.074" transform="translate(303.666 258.84)" fill="#00adb5" opacity="0.1"/>
    <path id="Path_442" data-name="Path 442" d="M968.46,770.11s3.628-.113,4.717-.889,5.577-1.709,5.849-.461,5.443,6.208,1.353,6.241-9.514-.639-10.6-1.3S968.46,770.11,968.46,770.11Z" transform="translate(-662.707 -515.189)" fill="#a8a8a8"/>
    <path id="Path_443" data-name="Path 443" d="M980.456,778c-4.093.033-9.51-.639-10.6-1.3-.831-.5-1.161-2.322-1.274-3.157h-.12s.229,2.925,1.321,3.589,6.51,1.335,10.6,1.3c1.183,0,1.589-.432,1.568-1.052C981.788,777.756,981.356,777.992,980.456,778Z" transform="translate(-662.707 -518.623)" opacity="0.2"/>
    <path id="Path_444" data-name="Path 444" d="M148.31,711.36c0,14.514,9.1,26.241,20.341,26.241" transform="translate(-140.149 -479.005)" fill="#46455b"/>
    <path id="Path_445" data-name="Path 445" d="M204.37,737.085c0-14.666,10.16-26.535,22.7-26.535" transform="translate(-175.868 -478.489)" fill="#00adb5"/>
    <path id="Path_446" data-name="Path 446" d="M168.62,715c0,13.788,5.806,24.928,12.972,24.928" transform="translate(-153.09 -481.324)" fill="#00adb5"/>
    <path id="Path_447" data-name="Path 447" d="M204.37,724.138c0-18.741,11.738-33.908,26.241-33.908" transform="translate(-175.868 -465.542)" fill="#46455b"/>
    <ellipse id="Ellipse_29" data-name="Ellipse 29" cx="5.058" cy="0.856" rx="5.058" ry="0.856" transform="translate(22.562 261.899)" fill="#00adb5" opacity="0.1"/>
    <path id="Path_448" data-name="Path 448" d="M192.58,781.414s2.885-.091,3.752-.726,4.441-1.361,4.655-.363,4.336,4.938,1.089,4.964-7.569-.508-8.436-1.034S192.58,781.414,192.58,781.414Z" transform="translate(-168.356 -522.633)" fill="#a8a8a8"/>
    <path id="Path_449" data-name="Path 449" d="M202.123,787.769c-3.266.025-7.569-.508-8.436-1.038-.66-.4-.922-1.847-1.012-2.511h-.094s.181,2.326,1.049,2.856,5.182,1.06,8.436,1.034c.94,0,1.266-.341,1.248-.838C203.183,787.562,202.823,787.747,202.123,787.769Z" transform="translate(-168.356 -525.428)" opacity="0.2"/>
  </g>
</svg>
